<svg width="48" height="48" viewBox="0 0 48 48" fill="none" xmlns="http://www.w3.org/2000/svg">
<path d="M24.0196 14.91C20.7096 14.91 18.0196 17.6 18.0196 20.91V23.8C18.0196 24.41 17.7596 25.34 17.4496 25.86L16.2996 27.77C15.5896 28.95 16.0796 30.26 17.3796 30.7C21.6896 32.14 26.3396 32.14 30.6496 30.7C31.8596 30.3 32.3896 28.87 31.7296 27.77L30.5796 25.86C30.2796 25.34 30.0196 24.41 30.0196 23.8V20.91C30.0196 17.61 27.3196 14.91 24.0196 14.91Z" stroke="#8593A6" stroke-width="1.5" stroke-miterlimit="10" stroke-linecap="round"/>
<path d="M25.8699 15.1999C25.5599 15.1099 25.2399 15.0399 24.9099 14.9999C23.9499 14.8799 23.0299 14.9499 22.1699 15.1999C22.4599 14.4599 23.1799 13.9399 24.0199 13.9399C24.8599 13.9399 25.5799 14.4599 25.8699 15.1999Z" stroke="#8593A6" stroke-width="1.5" stroke-miterlimit="10" stroke-linecap="round" stroke-linejoin="round"/>
<path d="M27 32C27 33.65 25.65 35 24 35C23.18 35 22.42 34.66 21.88 34.12C21.34 33.58 21 32.82 21 32" stroke="#8593A6" stroke-width="1.5" stroke-miterlimit="10"/>
</svg>
