<svg width="42" height="42" viewBox="0 0 42 42" fill="none" xmlns="http://www.w3.org/2000/svg">
<circle cx="21" cy="21" r="21" fill="#208BEE"/>
<path d="M20 11H18C13 11 11 13 11 18V24C11 29 13 31 18 31H24C29 31 31 29 31 24V22" stroke="white" stroke-width="1.5" stroke-linecap="round" stroke-linejoin="round"/>
<path d="M25.0399 12.02L17.1599 19.9C16.8599 20.2 16.5599 20.79 16.4999 21.22L16.0699 24.23C15.9099 25.32 16.6799 26.08 17.7699 25.93L20.7799 25.5C21.1999 25.44 21.7899 25.14 22.0999 24.84L29.9799 16.96C31.3399 15.6 31.9799 14.02 29.9799 12.02C27.9799 10.02 26.3999 10.66 25.0399 12.02Z" stroke="white" stroke-width="1.5" stroke-miterlimit="10" stroke-linecap="round" stroke-linejoin="round"/>
<path d="M23.9102 13.15C24.5802 15.54 26.4502 17.41 28.8502 18.09" stroke="white" stroke-width="1.5" stroke-miterlimit="10" stroke-linecap="round" stroke-linejoin="round"/>
</svg>
