<svg width="40" height="40" viewBox="0 0 40 40" fill="none" xmlns="http://www.w3.org/2000/svg">
<g filter="url(#filter0_d_4252_7856)">
<path d="M20 6C14.49 6 10 10.49 10 16C10 21.51 14.49 26 20 26C25.51 26 30 21.51 30 16C30 10.49 25.51 6 20 6ZM19.25 12C19.25 11.59 19.59 11.25 20 11.25C20.41 11.25 20.75 11.59 20.75 12V17C20.75 17.41 20.41 17.75 20 17.75C19.59 17.75 19.25 17.41 19.25 17V12ZM20.92 20.38C20.87 20.51 20.8 20.61 20.71 20.71C20.61 20.8 20.5 20.87 20.38 20.92C20.26 20.97 20.13 21 20 21C19.87 21 19.74 20.97 19.62 20.92C19.5 20.87 19.39 20.8 19.29 20.71C19.2 20.61 19.13 20.51 19.08 20.38C19.03 20.26 19 20.13 19 20C19 19.87 19.03 19.74 19.08 19.62C19.13 19.5 19.2 19.39 19.29 19.29C19.39 19.2 19.5 19.13 19.62 19.08C19.86 18.98 20.14 18.98 20.38 19.08C20.5 19.13 20.61 19.2 20.71 19.29C20.8 19.39 20.87 19.5 20.92 19.62C20.97 19.74 21 19.87 21 20C21 20.13 20.97 20.26 20.92 20.38Z" fill="white"/>
</g>
<defs>
<filter id="filter0_d_4252_7856" x="0" y="-2" width="40" height="42" filterUnits="userSpaceOnUse" color-interpolation-filters="sRGB">
<feFlood flood-opacity="0" result="BackgroundImageFix"/>
<feColorMatrix in="SourceAlpha" type="matrix" values="0 0 0 0 0 0 0 0 0 0 0 0 0 0 0 0 0 0 127 0" result="hardAlpha"/>
<feOffset dy="4"/>
<feGaussianBlur stdDeviation="4"/>
<feComposite in2="hardAlpha" operator="out"/>
<feColorMatrix type="matrix" values="0 0 0 0 0 0 0 0 0 0 0 0 0 0 0 0 0 0 0.1 0"/>
<feBlend mode="normal" in2="BackgroundImageFix" result="effect1_dropShadow_4252_7856"/>
<feBlend mode="normal" in="SourceGraphic" in2="effect1_dropShadow_4252_7856" result="shape"/>
</filter>
</defs>
</svg>
