<svg width="132" height="41" viewBox="0 0 132 41" fill="none" xmlns="http://www.w3.org/2000/svg">
<rect x="75.8379" y="23" width="24" height="24" rx="4" transform="rotate(-45 75.8379 23)" stroke="#208BEE" stroke-width="5"/>
<rect x="96.8379" y="23" width="24" height="24" rx="4" transform="rotate(-45 96.8379 23)" stroke="#6D6C80" stroke-width="5"/>
<path d="M89.8084 9.02944L78.6663 20.1716C77.1042 21.7337 77.1042 24.2663 78.6663 25.8284L89.98 37.1421C91.5421 38.7042 94.0748 38.7042 95.6369 37.1421L106.779 26" stroke="#208BEE" stroke-width="5"/>
<path d="M13.8057 22.6C13.8057 21.8667 13.9857 21.1867 14.3457 20.56C14.7191 19.9333 15.2191 19.4333 15.8457 19.06C16.4724 18.6867 17.1524 18.5 17.8857 18.5H22.4657C23.2657 18.5 23.9991 18.68 24.6657 19.04C25.3324 19.4 25.8591 19.9 26.2457 20.54C26.6457 21.1667 26.8457 21.8733 26.8457 22.66C26.8457 23.4467 26.6457 24.18 26.2457 24.86C25.8591 25.5267 25.3257 26.06 24.6457 26.46C23.9791 26.8467 23.2524 27.04 22.4657 27.04C21.6791 27.04 20.9657 26.8467 20.3257 26.46C19.6991 26.06 19.2057 25.5267 18.8457 24.86C18.4857 24.1933 18.3057 23.46 18.3057 22.66V21.36H17.9057C17.5724 21.36 17.2857 21.4867 17.0457 21.74C16.8057 21.98 16.6857 22.2667 16.6857 22.6V32.02H13.8057V22.6ZM22.4657 24.02C22.8524 24.02 23.1724 23.8933 23.4257 23.64C23.6924 23.3733 23.8257 23.0467 23.8257 22.66C23.8257 22.2867 23.6924 21.9733 23.4257 21.72C23.1724 21.4667 22.8524 21.34 22.4657 21.34H21.1457V22.66C21.1457 23.0467 21.2724 23.3733 21.5257 23.64C21.7791 23.8933 22.0924 24.02 22.4657 24.02ZM37.6961 23.98C37.8294 23.98 37.8961 24.0467 37.8961 24.18V26.8C37.8961 26.9333 37.8294 27 37.6961 27H36.7961C36.6894 27.92 36.4161 28.6933 35.9761 29.32C35.5494 29.9467 34.9294 30.5067 34.1161 31C33.3161 31.5067 32.1961 32.0667 30.7561 32.68L29.8561 30.14C31.0427 29.6333 31.9227 29.22 32.4961 28.9C33.0827 28.58 33.4827 28.28 33.6961 28C33.9094 27.72 34.0161 27.3867 34.0161 27H32.7161C31.9161 27 31.1827 26.82 30.5161 26.46C29.8494 26.1 29.3161 25.6067 28.9161 24.98C28.5294 24.34 28.3361 23.6267 28.3361 22.84C28.3361 22.04 28.5294 21.3067 28.9161 20.64C29.3161 19.9733 29.8494 19.4467 30.5161 19.06C31.1827 18.66 31.9161 18.46 32.7161 18.46C33.4894 18.46 34.1961 18.66 34.8361 19.06C35.4761 19.4467 35.9761 19.9733 36.3361 20.64C36.6961 21.3067 36.8761 22.04 36.8761 22.84V23.98H37.6961ZM34.0161 22.82C34.0161 22.4333 33.8894 22.1133 33.6361 21.86C33.3961 21.6067 33.0894 21.48 32.7161 21.48C32.3294 21.48 32.0027 21.6067 31.7361 21.86C31.4827 22.1133 31.3561 22.4333 31.3561 22.82C31.3561 23.2067 31.4827 23.5267 31.7361 23.78C32.0027 24.0333 32.3294 24.16 32.7161 24.16H34.0161V22.82ZM37.4904 24.18C37.4904 24.0467 37.5571 23.98 37.6904 23.98H38.9904C39.2571 23.98 39.4771 23.8933 39.6504 23.72C39.8238 23.5333 39.9104 23.3067 39.9104 23.04V19.54H42.7904V23.04C42.7904 23.3067 42.8771 23.5333 43.0504 23.72C43.2238 23.8933 43.4438 23.98 43.7104 23.98H45.0104C45.1438 23.98 45.2104 24.0467 45.2104 24.18V26.8C45.2104 26.9333 45.1438 27 45.0104 27H43.7104C42.7238 27 41.9371 26.6733 41.3504 26.02C40.7371 26.6733 39.9504 27 38.9904 27H37.6904C37.5571 27 37.4904 26.9333 37.4904 26.8V24.18ZM38.2504 28.72H40.8104V31.28H38.2504V28.72ZM41.8504 28.72H44.4304V31.28H41.8504V28.72ZM45.0146 27C44.8813 27 44.8146 26.9333 44.8146 26.8V24.18C44.8146 24.0467 44.8813 23.98 45.0146 23.98H45.8546C46.1213 23.98 46.3413 23.8933 46.5146 23.72C46.7013 23.5333 46.7946 23.3067 46.7946 23.04V13.52H49.6546V23.04C49.6546 23.3067 49.7413 23.5333 49.9146 23.72C50.088 23.8933 50.308 23.98 50.5746 23.98H51.4346C51.568 23.98 51.6346 24.0467 51.6346 24.18V26.8C51.6346 26.9333 51.568 27 51.4346 27H50.5746C50.068 27 49.6146 26.9 49.2146 26.7C48.8146 26.5 48.4813 26.2267 48.2146 25.88C47.9613 26.2267 47.628 26.5 47.2146 26.7C46.8146 26.9 46.3613 27 45.8546 27H45.0146ZM62.0804 18.52C62.8804 18.52 63.6138 18.7 64.2804 19.06C64.9471 19.42 65.4738 19.92 65.8604 20.56C66.2604 21.1867 66.4604 21.8933 66.4604 22.68C66.4604 23.4667 66.2604 24.1933 65.8604 24.86C65.4604 25.5133 64.9204 26.0333 64.2404 26.42C63.5738 26.8067 62.8538 27 62.0804 27H51.4404C51.3071 27 51.2404 26.9333 51.2404 26.8V24.18C51.2404 24.0467 51.3071 23.98 51.4404 23.98H53.5204C53.3738 23.58 53.3004 23.1733 53.3004 22.76C53.3004 22.2933 53.3938 21.8333 53.5804 21.38H52.3004V18.52H62.0804ZM56.2404 22.68C56.2404 23.0267 56.3671 23.3333 56.6204 23.6C56.8738 23.8533 57.1804 23.98 57.5404 23.98C57.9004 23.98 58.2071 23.8533 58.4604 23.6C58.7138 23.3333 58.8404 23.0267 58.8404 22.68C58.8404 22.32 58.7138 22.0133 58.4604 21.76C58.2071 21.5067 57.9004 21.38 57.5404 21.38C57.1804 21.38 56.8738 21.5067 56.6204 21.76C56.3671 22.0133 56.2404 22.32 56.2404 22.68ZM62.0804 23.98C62.4671 23.98 62.7871 23.86 63.0404 23.62C63.3071 23.3667 63.4404 23.0533 63.4404 22.68C63.4404 22.3067 63.3071 22 63.0404 21.76C62.7871 21.5067 62.4671 21.38 62.0804 21.38H61.1004C61.2471 21.8467 61.3204 22.3067 61.3204 22.76C61.3204 23.1867 61.2604 23.5933 61.1404 23.98H62.0804Z" fill="#208BEE"/>
<path d="M11.3547 13.457V13.207H11.1047H7.37786V9.48022V9.23022H7.12786H4.98731H4.73731V9.48022V13.207H1H0.75V13.457V15.5976V15.8476H1H4.73731V19.5849V19.8349H4.98731H7.12786H7.37786V19.5849V15.8476H11.1047H11.3547V15.5976V13.457Z" fill="#208BEE" stroke="#208BEE" stroke-width="0.5"/>
</svg>
