<svg width="132" height="41" viewBox="0 0 132 41" fill="none" xmlns="http://www.w3.org/2000/svg">
<rect x="75.838" y="23" width="24" height="24" rx="4" transform="rotate(-45 75.838 23)" stroke="white" stroke-width="5"/>
<rect x="96.838" y="23" width="24" height="24" rx="4" transform="rotate(-45 96.838 23)" stroke="white" stroke-width="5"/>
<path d="M89.8086 9.02944L78.6664 20.1716C77.1043 21.7337 77.1043 24.2663 78.6664 25.8284L89.9802 37.1421C91.5422 38.7042 94.0749 38.7042 95.637 37.1421L106.779 26" stroke="white" stroke-width="5"/>
<path d="M13.8056 22.6C13.8056 21.8667 13.9856 21.1867 14.3456 20.56C14.719 19.9333 15.219 19.4333 15.8456 19.06C16.4723 18.6867 17.1523 18.5 17.8856 18.5H22.4656C23.2656 18.5 23.999 18.68 24.6656 19.04C25.3323 19.4 25.859 19.9 26.2456 20.54C26.6456 21.1667 26.8456 21.8733 26.8456 22.66C26.8456 23.4467 26.6456 24.18 26.2456 24.86C25.859 25.5267 25.3256 26.06 24.6456 26.46C23.979 26.8467 23.2523 27.04 22.4656 27.04C21.679 27.04 20.9656 26.8467 20.3256 26.46C19.699 26.06 19.2056 25.5267 18.8456 24.86C18.4856 24.1933 18.3056 23.46 18.3056 22.66V21.36H17.9056C17.5723 21.36 17.2856 21.4867 17.0456 21.74C16.8056 21.98 16.6856 22.2667 16.6856 22.6V32.02H13.8056V22.6ZM22.4656 24.02C22.8523 24.02 23.1723 23.8933 23.4256 23.64C23.6923 23.3733 23.8256 23.0467 23.8256 22.66C23.8256 22.2867 23.6923 21.9733 23.4256 21.72C23.1723 21.4667 22.8523 21.34 22.4656 21.34H21.1456V22.66C21.1456 23.0467 21.2723 23.3733 21.5256 23.64C21.779 23.8933 22.0923 24.02 22.4656 24.02ZM37.6959 23.98C37.8293 23.98 37.8959 24.0467 37.8959 24.18V26.8C37.8959 26.9333 37.8293 27 37.6959 27H36.7959C36.6893 27.92 36.4159 28.6933 35.9759 29.32C35.5493 29.9467 34.9293 30.5067 34.1159 31C33.3159 31.5067 32.1959 32.0667 30.7559 32.68L29.8559 30.14C31.0426 29.6333 31.9226 29.22 32.4959 28.9C33.0826 28.58 33.4826 28.28 33.6959 28C33.9093 27.72 34.0159 27.3867 34.0159 27H32.7159C31.9159 27 31.1826 26.82 30.5159 26.46C29.8493 26.1 29.3159 25.6067 28.9159 24.98C28.5293 24.34 28.3359 23.6267 28.3359 22.84C28.3359 22.04 28.5293 21.3067 28.9159 20.64C29.3159 19.9733 29.8493 19.4467 30.5159 19.06C31.1826 18.66 31.9159 18.46 32.7159 18.46C33.4893 18.46 34.1959 18.66 34.8359 19.06C35.4759 19.4467 35.9759 19.9733 36.3359 20.64C36.6959 21.3067 36.8759 22.04 36.8759 22.84V23.98H37.6959ZM34.0159 22.82C34.0159 22.4333 33.8893 22.1133 33.6359 21.86C33.3959 21.6067 33.0893 21.48 32.7159 21.48C32.3293 21.48 32.0026 21.6067 31.7359 21.86C31.4826 22.1133 31.3559 22.4333 31.3559 22.82C31.3559 23.2067 31.4826 23.5267 31.7359 23.78C32.0026 24.0333 32.3293 24.16 32.7159 24.16H34.0159V22.82ZM37.4903 24.18C37.4903 24.0467 37.557 23.98 37.6903 23.98H38.9903C39.257 23.98 39.477 23.8933 39.6503 23.72C39.8236 23.5333 39.9103 23.3067 39.9103 23.04V19.54H42.7903V23.04C42.7903 23.3067 42.877 23.5333 43.0503 23.72C43.2236 23.8933 43.4436 23.98 43.7103 23.98H45.0103C45.1436 23.98 45.2103 24.0467 45.2103 24.18V26.8C45.2103 26.9333 45.1436 27 45.0103 27H43.7103C42.7236 27 41.937 26.6733 41.3503 26.02C40.737 26.6733 39.9503 27 38.9903 27H37.6903C37.557 27 37.4903 26.9333 37.4903 26.8V24.18ZM38.2503 28.72H40.8103V31.28H38.2503V28.72ZM41.8503 28.72H44.4303V31.28H41.8503V28.72ZM45.0145 27C44.8812 27 44.8145 26.9333 44.8145 26.8V24.18C44.8145 24.0467 44.8812 23.98 45.0145 23.98H45.8545C46.1212 23.98 46.3412 23.8933 46.5145 23.72C46.7012 23.5333 46.7945 23.3067 46.7945 23.04V13.52H49.6545V23.04C49.6545 23.3067 49.7412 23.5333 49.9145 23.72C50.0879 23.8933 50.3079 23.98 50.5745 23.98H51.4345C51.5679 23.98 51.6345 24.0467 51.6345 24.18V26.8C51.6345 26.9333 51.5679 27 51.4345 27H50.5745C50.0679 27 49.6145 26.9 49.2145 26.7C48.8145 26.5 48.4812 26.2267 48.2145 25.88C47.9612 26.2267 47.6279 26.5 47.2145 26.7C46.8145 26.9 46.3612 27 45.8545 27H45.0145ZM62.0803 18.52C62.8803 18.52 63.6136 18.7 64.2803 19.06C64.947 19.42 65.4736 19.92 65.8603 20.56C66.2603 21.1867 66.4603 21.8933 66.4603 22.68C66.4603 23.4667 66.2603 24.1933 65.8603 24.86C65.4603 25.5133 64.9203 26.0333 64.2403 26.42C63.5736 26.8067 62.8536 27 62.0803 27H51.4403C51.307 27 51.2403 26.9333 51.2403 26.8V24.18C51.2403 24.0467 51.307 23.98 51.4403 23.98H53.5203C53.3736 23.58 53.3003 23.1733 53.3003 22.76C53.3003 22.2933 53.3936 21.8333 53.5803 21.38H52.3003V18.52H62.0803ZM56.2403 22.68C56.2403 23.0267 56.367 23.3333 56.6203 23.6C56.8736 23.8533 57.1803 23.98 57.5403 23.98C57.9003 23.98 58.207 23.8533 58.4603 23.6C58.7136 23.3333 58.8403 23.0267 58.8403 22.68C58.8403 22.32 58.7136 22.0133 58.4603 21.76C58.207 21.5067 57.9003 21.38 57.5403 21.38C57.1803 21.38 56.8736 21.5067 56.6203 21.76C56.367 22.0133 56.2403 22.32 56.2403 22.68ZM62.0803 23.98C62.467 23.98 62.787 23.86 63.0403 23.62C63.307 23.3667 63.4403 23.0533 63.4403 22.68C63.4403 22.3067 63.307 22 63.0403 21.76C62.787 21.5067 62.467 21.38 62.0803 21.38H61.1003C61.247 21.8467 61.3203 22.3067 61.3203 22.76C61.3203 23.1867 61.2603 23.5933 61.1403 23.98H62.0803Z" fill="white"/>
<path d="M11.3547 13.457V13.207H11.1047H7.37786V9.48022V9.23022H7.12786H4.98731H4.73731V9.48022V13.207H1H0.75V13.457V15.5976V15.8476H1H4.73731V19.5849V19.8349H4.98731H7.12786H7.37786V19.5849V15.8476H11.1047H11.3547V15.5976V13.457Z" fill="white" stroke="white" stroke-width="0.5"/>
</svg>
