<svg width="24" height="24" viewBox="0 0 24 24" fill="none" xmlns="http://www.w3.org/2000/svg">
<path d="M12.0201 2.91C8.71009 2.91 6.02009 5.6 6.02009 8.91V11.8C6.02009 12.41 5.76009 13.34 5.45009 13.86L4.30009 15.77C3.59009 16.95 4.08009 18.26 5.38009 18.7C9.69009 20.14 14.3401 20.14 18.6501 18.7C19.8601 18.3 20.3901 16.87 19.7301 15.77L18.5801 13.86C18.2801 13.34 18.0201 12.41 18.0201 11.8V8.91C18.0201 5.61 15.3201 2.91 12.0201 2.91Z" stroke="#636E7B" stroke-width="1.5" stroke-miterlimit="10" stroke-linecap="round"/>
<path d="M13.8699 3.2C13.5599 3.11 13.2399 3.04 12.9099 3C11.9499 2.88 11.0299 2.95 10.1699 3.2C10.4599 2.46 11.1799 1.94 12.0199 1.94C12.8599 1.94 13.5799 2.46 13.8699 3.2Z" stroke="#636E7B" stroke-width="1.5" stroke-miterlimit="10" stroke-linecap="round" stroke-linejoin="round"/>
<path d="M15 20C15 21.65 13.65 23 12 23C11.18 23 10.42 22.66 9.88 22.12C9.34 21.58 9 20.82 9 20" stroke="#636E7B" stroke-width="1.5" stroke-miterlimit="10"/>
</svg>
