<svg width="501" height="148" viewBox="0 0 501 148" fill="none" xmlns="http://www.w3.org/2000/svg">
<g clip-path="url(#clip0_642_21817)">
<g style="mix-blend-mode:overlay" opacity="0.5">
<path fill-rule="evenodd" clip-rule="evenodd" d="M111.4 117.9C111.5 117.1 112.2 116.5 113 116.5C113.8 116.6 114.5 117.2 114.4 118.1C114.4 118.9 113.7 119.6 112.8 119.5C112 119.5 111.3 118.8 111.4 117.9Z" fill="#5C5C5C"/>
<path fill-rule="evenodd" clip-rule="evenodd" d="M103.4 117C103.5 116.2 104.3 115.6 105.1 115.7C105.9 115.8 106.5 116.6 106.4 117.4C106.3 118.2 105.5 118.8 104.7 118.7C103.8 118.7 103.3 117.9 103.4 117Z" fill="#5C5C5C"/>
<path fill-rule="evenodd" clip-rule="evenodd" d="M95.4998 115.4C95.6998 114.6 96.4997 114.1 97.2997 114.3C98.0997 114.5 98.5997 115.3 98.3997 116.1C98.1997 116.9 97.3998 117.4 96.5998 117.2C95.7998 117 95.2998 116.2 95.4998 115.4Z" fill="#5C5C5C"/>
<path fill-rule="evenodd" clip-rule="evenodd" d="M87.8 113.1C88.1 112.3 88.9 111.9 89.7 112.2C90.5 112.5 90.9 113.3 90.7 114.1C90.5 114.9 89.6 115.3 88.8 115C87.9 114.7 87.5 113.9 87.8 113.1Z" fill="#5C5C5C"/>
<path fill-rule="evenodd" clip-rule="evenodd" d="M80.2999 110.1C80.5999 109.3 81.4999 109 82.2999 109.3C82.9999 109.6 83.3999 110.5 83.0999 111.3C82.7999 112.1 81.8999 112.5 81.0999 112.1C80.2999 111.8 79.9999 110.9 80.2999 110.1Z" fill="#5C5C5C"/>
<path fill-rule="evenodd" clip-rule="evenodd" d="M73.0998 106.5C73.4998 105.8 74.3998 105.5 75.0998 105.9C75.7998 106.3 76.0997 107.2 75.6997 107.9C75.2997 108.6 74.3998 108.9 73.5998 108.5C72.8998 108.2 72.6998 107.2 73.0998 106.5Z" fill="#5C5C5C"/>
<path fill-rule="evenodd" clip-rule="evenodd" d="M66.2003 102.3C66.7003 101.6 67.6003 101.4 68.3003 101.9C69.0003 102.3 69.2003 103.3 68.7003 104C68.3003 104.7 67.3003 104.9 66.6003 104.4C65.9003 103.9 65.8003 103 66.2003 102.3Z" fill="#5C5C5C"/>
<path fill-rule="evenodd" clip-rule="evenodd" d="M59.8 97.4999C60.3 96.8999 61.3 96.6999 61.9 97.2999C62.5 97.7999 62.7 98.7999 62.2 99.3999C61.7 100.1 60.8 100.2 60.1 99.5999C59.4 98.9999 59.2 98.0999 59.8 97.4999Z" fill="#5C5C5C"/>
<path fill-rule="evenodd" clip-rule="evenodd" d="M53.8 92.0999C54.4 91.4999 55.2999 91.5 55.8999 92C56.4999 92.6 56.4999 93.4999 55.9999 94.0999C55.3999 94.6999 54.4999 94.6999 53.8999 94.1999C53.1999 93.5999 53.2 92.6999 53.8 92.0999Z" fill="#5C5C5C"/>
<path fill-rule="evenodd" clip-rule="evenodd" d="M48.1997 86.1999C48.7997 85.6999 49.7997 85.6999 50.2997 86.2999C50.7997 86.8999 50.7997 87.8999 50.1997 88.3999C49.5997 88.9999 48.5997 88.8999 48.0997 88.2999C47.4997 87.6999 47.5997 86.7999 48.1997 86.1999Z" fill="#5C5C5C"/>
<path fill-rule="evenodd" clip-rule="evenodd" d="M43.2003 79.9C43.9003 79.4 44.8003 79.6 45.3003 80.2C45.8003 80.8 45.7003 81.8 45.0003 82.3C44.3003 82.8 43.4003 82.7 42.9003 82C42.4003 81.4 42.5003 80.4 43.2003 79.9Z" fill="#5C5C5C"/>
<path fill-rule="evenodd" clip-rule="evenodd" d="M38.8002 73.1998C39.5002 72.7998 40.4001 72.9998 40.9001 73.6998C41.3001 74.3998 41.1001 75.2999 40.4001 75.7999C39.7001 76.2999 38.8002 75.9999 38.3002 75.2999C37.8002 74.5999 38.1002 73.5998 38.8002 73.1998Z" fill="#5C5C5C"/>
<path fill-rule="evenodd" clip-rule="evenodd" d="M34.8998 66.1C35.5998 65.7 36.5998 66 36.8998 66.8C37.1998 67.6 36.9998 68.4 36.1998 68.8C35.4998 69.2 34.5998 68.9 34.1998 68.1C33.8998 67.4 34.1998 66.5 34.8998 66.1Z" fill="#5C5C5C"/>
<path fill-rule="evenodd" clip-rule="evenodd" d="M31.7004 58.6999C32.5004 58.3999 33.3004 58.7999 33.6004 59.4999C33.9004 60.2999 33.5004 61.0999 32.8004 61.4999C32.0004 61.7999 31.2004 61.3999 30.9004 60.6999C30.6004 59.8999 31.0004 58.9999 31.7004 58.6999Z" fill="#5C5C5C"/>
<path fill-rule="evenodd" clip-rule="evenodd" d="M29.1999 50.9999C29.9999 50.7999 30.7999 51.1999 31.0999 51.9999C31.2999 52.7999 30.8999 53.5999 30.0999 53.8999C29.2999 54.1999 28.3999 53.6999 28.1999 52.8999C27.9999 52.0999 28.3999 51.2999 29.1999 50.9999Z" fill="#5C5C5C"/>
<path fill-rule="evenodd" clip-rule="evenodd" d="M27.3999 43.1999C28.1999 42.9999 28.9999 43.5999 29.0999 44.3999C29.2999 45.1999 28.7999 45.9999 27.9999 46.1999C27.1999 46.3999 26.3999 45.8999 26.1999 44.9999C25.9999 44.1999 26.4999 43.3999 27.3999 43.1999Z" fill="#5C5C5C"/>
<path fill-rule="evenodd" clip-rule="evenodd" d="M26.2002 35.1999C27.0002 35.0999 27.8002 35.6999 27.9002 36.4999C28.0002 37.2999 27.4002 38.0999 26.6002 38.1999C25.8002 38.2999 25.0002 37.6999 24.9002 36.8999C24.8002 36.0999 25.3002 35.2999 26.2002 35.1999Z" fill="#5C5C5C"/>
<path fill-rule="evenodd" clip-rule="evenodd" d="M25.6997 27.2C26.4997 27.2 27.1997 27.8 27.1997 28.7C27.1997 29.5 26.5997 30.2 25.6997 30.3C24.8997 30.3 24.1997 29.7 24.1997 28.8C24.2997 27.9 24.8997 27.2 25.6997 27.2Z" fill="#5C5C5C"/>
<path fill-rule="evenodd" clip-rule="evenodd" d="M25.9999 19.1C26.7999 19.2 27.3999 19.9 27.3999 20.7C27.2999 21.5 26.6999 22.2 25.7999 22.1C24.9999 22.1 24.2999 21.4 24.3999 20.5C24.3999 19.7 25.0999 19.1 25.9999 19.1Z" fill="#5C5C5C"/>
<path fill-rule="evenodd" clip-rule="evenodd" d="M26.9 11.0999C27.7 11.1999 28.3 11.9999 28.2 12.7999C28.1 13.5999 27.3 14.1999 26.5 14.0999C25.7 13.9999 25.1 13.1999 25.2 12.3999C25.3 11.5999 26.1 10.9999 26.9 11.0999Z" fill="#5C5C5C"/>
<path fill-rule="evenodd" clip-rule="evenodd" d="M28.4999 3.19986C29.2999 3.39986 29.7999 4.19991 29.5999 4.99991C29.3999 5.79991 28.6 6.29988 27.8 6.09988C27 5.89988 26.4999 5.0999 26.6999 4.2999C26.8999 3.4999 27.6999 2.99986 28.4999 3.19986Z" fill="#5C5C5C"/>
<path fill-rule="evenodd" clip-rule="evenodd" d="M207 0.599963C206.2 0.799963 205.4 0.399963 205.1 -0.400037C204.9 -1.20004 205.3 -2.00006 206.1 -2.30006C206.9 -2.60006 207.8 -2.10006 208 -1.30006C208.2 -0.500062 207.8 0.399963 207 0.599963Z" fill="#5C5C5C"/>
<path fill-rule="evenodd" clip-rule="evenodd" d="M208.8 8.39998C208 8.59998 207.2 7.99996 207.1 7.19996C206.9 6.39996 207.4 5.59997 208.2 5.39997C209 5.19997 209.8 5.69999 210 6.59999C210.2 7.49999 209.6 8.29998 208.8 8.39998Z" fill="#5C5C5C"/>
<path fill-rule="evenodd" clip-rule="evenodd" d="M210 16.3999C209.2 16.4999 208.4 15.9 208.3 15.1C208.2 14.3 208.8 13.4999 209.6 13.3999C210.4 13.2999 211.2 13.8999 211.3 14.6999C211.4 15.5999 210.8 16.2999 210 16.3999Z" fill="#5C5C5C"/>
<path fill-rule="evenodd" clip-rule="evenodd" d="M210.5 24.4C209.7 24.4 209 23.8 209 22.9C209 22.1 209.6 21.4 210.5 21.3C211.3 21.3 212 21.9 212 22.8C211.9 23.7 211.3 24.4 210.5 24.4Z" fill="#5C5C5C"/>
<path fill-rule="evenodd" clip-rule="evenodd" d="M210.2 32.4999C209.4 32.3999 208.8 31.6999 208.8 30.8999C208.9 30.0999 209.5 29.3999 210.4 29.4999C211.2 29.4999 211.9 30.1999 211.8 31.0999C211.8 31.8999 211 32.5999 210.2 32.4999Z" fill="#5C5C5C"/>
<path fill-rule="evenodd" clip-rule="evenodd" d="M209.3 40.4999C208.5 40.3999 207.9 39.5999 208 38.7999C208.1 37.9999 208.9 37.3999 209.7 37.4999C210.5 37.5999 211.1 38.3999 211 39.1999C210.9 40.0999 210.1 40.5999 209.3 40.4999Z" fill="#5C5C5C"/>
<path fill-rule="evenodd" clip-rule="evenodd" d="M207.7 48.3999C206.9 48.1999 206.4 47.3999 206.6 46.5999C206.8 45.7999 207.6 45.2999 208.4 45.4999C209.2 45.6999 209.7 46.4999 209.5 47.2999C209.3 48.0999 208.5 48.5999 207.7 48.3999Z" fill="#5C5C5C"/>
<path fill-rule="evenodd" clip-rule="evenodd" d="M205.4 56.0999C204.6 55.7999 204.2 54.9999 204.5 54.1999C204.8 53.3999 205.6 52.9999 206.4 53.1999C207.2 53.3999 207.6 54.2999 207.3 55.0999C207 55.9999 206.2 56.3999 205.4 56.0999Z" fill="#5C5C5C"/>
<path fill-rule="evenodd" clip-rule="evenodd" d="M202.4 63.5999C201.6 63.2999 201.3 62.3999 201.6 61.5999C201.9 60.8999 202.8 60.4999 203.6 60.7999C204.4 61.0999 204.8 61.9999 204.4 62.7999C204 63.5999 203.2 63.9999 202.4 63.5999Z" fill="#5C5C5C"/>
<path fill-rule="evenodd" clip-rule="evenodd" d="M198.8 70.7999C198.1 70.3999 197.8 69.4999 198.2 68.7999C198.6 68.0999 199.5 67.7999 200.2 68.1999C200.9 68.5999 201.2 69.4999 200.8 70.2999C200.5 70.9999 199.5 71.1999 198.8 70.7999Z" fill="#5C5C5C"/>
<path fill-rule="evenodd" clip-rule="evenodd" d="M194.6 77.6999C193.9 77.1999 193.7 76.2999 194.2 75.5999C194.6 74.8999 195.6 74.6999 196.3 75.1999C197 75.5999 197.2 76.5999 196.7 77.2999C196.2 77.9999 195.3 78.1999 194.6 77.6999Z" fill="#5C5C5C"/>
<path fill-rule="evenodd" clip-rule="evenodd" d="M189.7 84.0999C189.1 83.5999 188.9 82.5999 189.5 81.9999C190 81.3999 191 81.1999 191.6 81.6999C192.3 82.1999 192.4 83.0999 191.8 83.7999C191.3 84.5999 190.4 84.6999 189.7 84.0999Z" fill="#5C5C5C"/>
<path fill-rule="evenodd" clip-rule="evenodd" d="M184.4 90.1999C183.8 89.5999 183.8 88.6999 184.3 88.0999C184.8 87.4999 185.8 87.5 186.4 88C187 88.6 187 89.4999 186.5 90.0999C186 90.6999 185 90.6999 184.4 90.1999Z" fill="#5C5C5C"/>
<path fill-rule="evenodd" clip-rule="evenodd" d="M178.5 95.6999C178 95.0999 178 94.0999 178.6 93.5999C179.2 93.0999 180.2 93.0999 180.7 93.6999C181.3 94.2999 181.2 95.2999 180.6 95.7999C180 96.3999 179 96.2999 178.5 95.6999Z" fill="#5C5C5C"/>
<path fill-rule="evenodd" clip-rule="evenodd" d="M172.2 100.7C171.7 100 171.9 99.1 172.5 98.6C173.1 98.1 174.1 98.2 174.6 98.9C175.1 99.6 175 100.5 174.3 101C173.6 101.5 172.7 101.4 172.2 100.7Z" fill="#5C5C5C"/>
<path fill-rule="evenodd" clip-rule="evenodd" d="M165.5 105.1C165.1 104.4 165.3 103.5 166 103C166.7 102.6 167.6 102.8 168.1 103.5C168.6 104.2 168.3 105.1 167.6 105.6C166.8 106.1 165.9 105.9 165.5 105.1Z" fill="#5C5C5C"/>
<path fill-rule="evenodd" clip-rule="evenodd" d="M158.4 109C158 108.3 158.3 107.3 159.1 107C159.8 106.6 160.7 106.9 161.1 107.7C161.5 108.4 161.2 109.3 160.4 109.7C159.6 110 158.7 109.7 158.4 109Z" fill="#5C5C5C"/>
<path fill-rule="evenodd" clip-rule="evenodd" d="M151 112.2C150.7 111.4 151.1 110.6 151.8 110.3C152.6 110 153.4 110.4 153.8 111.1C154.1 111.9 153.7 112.7 153 113C152.1 113.3 151.3 112.9 151 112.2Z" fill="#5C5C5C"/>
<path fill-rule="evenodd" clip-rule="evenodd" d="M143.3 114.7C143.1 113.9 143.5 113.1 144.3 112.8C145.1 112.6 145.9 113 146.2 113.8C146.5 114.6 146 115.5 145.2 115.7C144.4 116 143.5 115.5 143.3 114.7Z" fill="#5C5C5C"/>
<path fill-rule="evenodd" clip-rule="evenodd" d="M135.5 116.6C135.3 115.8 135.9 115 136.7 114.9C137.5 114.7 138.3 115.2 138.5 116C138.7 116.8 138.2 117.6 137.3 117.8C136.4 117.9 135.6 117.4 135.5 116.6Z" fill="#5C5C5C"/>
<path fill-rule="evenodd" clip-rule="evenodd" d="M127.5 117.7C127.4 116.9 128 116.1 128.8 116C129.6 115.9 130.4 116.5 130.5 117.3C130.6 118.1 130 118.9 129.2 119C128.3 119.1 127.6 118.6 127.5 117.7Z" fill="#5C5C5C"/>
<path fill-rule="evenodd" clip-rule="evenodd" d="M119.5 118.2C119.5 117.4 120.1 116.7 121 116.7C121.8 116.7 122.5 117.3 122.6 118.2C122.6 119 122 119.7 121.1 119.7C120.2 119.7 119.5 119 119.5 118.2Z" fill="#5C5C5C"/>
<path fill-rule="evenodd" clip-rule="evenodd" d="M111.4 109.7C111.5 108.9 112.2 108.3 113 108.3C113.8 108.4 114.4 109 114.4 109.9C114.4 110.7 113.7 111.4 112.8 111.3C112 111.3 111.4 110.6 111.4 109.7Z" fill="#5C5C5C"/>
<path fill-rule="evenodd" clip-rule="evenodd" d="M103.5 108.7C103.6 107.9 104.4 107.3 105.2 107.5C106 107.6 106.6 108.4 106.5 109.2C106.4 110 105.6 110.6 104.8 110.5C103.9 110.3 103.4 109.6 103.5 108.7Z" fill="#5C5C5C"/>
<path fill-rule="evenodd" clip-rule="evenodd" d="M95.6999 107C95.8999 106.2 96.6999 105.7 97.4999 106C98.2999 106.2 98.7999 107 98.5999 107.8C98.3999 108.6 97.5999 109.1 96.7999 108.9C95.8999 108.6 95.4999 107.8 95.6999 107Z" fill="#5C5C5C"/>
<path fill-rule="evenodd" clip-rule="evenodd" d="M88.0999 104.5C88.3999 103.7 89.1999 103.4 89.9999 103.6C90.7999 103.9 91.1999 104.7 90.8999 105.5C90.5999 106.3 89.7999 106.7 88.9999 106.4C88.1999 106.2 87.7999 105.3 88.0999 104.5Z" fill="#5C5C5C"/>
<path fill-rule="evenodd" clip-rule="evenodd" d="M80.6997 101.3C81.0997 100.5 81.8997 100.3 82.6997 100.6C83.3997 100.9 83.7997 101.8 83.3997 102.6C83.0997 103.4 82.1997 103.7 81.3997 103.3C80.6997 103 80.3997 102 80.6997 101.3Z" fill="#5C5C5C"/>
<path fill-rule="evenodd" clip-rule="evenodd" d="M73.6995 97.3999C74.0995 96.6999 74.9996 96.4999 75.7996 96.8999C76.4996 97.2999 76.6996 98.1999 76.2996 98.8999C75.8996 99.5999 74.9995 99.8999 74.1995 99.3999C73.4995 98.9999 73.2995 98.0999 73.6995 97.3999Z" fill="#5C5C5C"/>
<path fill-rule="evenodd" clip-rule="evenodd" d="M67.1 92.8C67.6 92.1 68.5 92 69.2 92.5C69.9 93 70 93.9 69.5 94.6C69 95.3 68.1 95.4 67.4 94.9C66.7 94.5 66.6 93.5 67.1 92.8Z" fill="#5C5C5C"/>
<path fill-rule="evenodd" clip-rule="evenodd" d="M60.9999 87.6999C61.5999 87.0999 62.4999 87.0999 63.0999 87.5999C63.6999 88.0999 63.7999 89.0999 63.1999 89.6999C62.6999 90.2999 61.6999 90.3999 61.0999 89.7999C60.4999 89.2999 60.3999 88.2999 60.9999 87.6999Z" fill="#5C5C5C"/>
<path fill-rule="evenodd" clip-rule="evenodd" d="M55.4002 81.9999C56.0002 81.3999 56.9002 81.4999 57.5002 82.0999C58.1002 82.6999 58.0002 83.5999 57.4002 84.1999C56.8002 84.7999 55.8002 84.6999 55.3002 84.0999C54.7002 83.4999 54.7002 82.4999 55.4002 81.9999Z" fill="#5C5C5C"/>
<path fill-rule="evenodd" clip-rule="evenodd" d="M50.2999 75.7999C50.9999 75.2999 51.8999 75.4999 52.3999 76.0999C52.8999 76.6999 52.7999 77.6998 52.0999 78.1998C51.4999 78.6998 50.4999 78.5998 49.9999 77.8998C49.4999 77.1998 49.5999 76.2999 50.2999 75.7999Z" fill="#5C5C5C"/>
<path fill-rule="evenodd" clip-rule="evenodd" d="M45.8998 69.0999C46.5998 68.6999 47.4997 68.8999 47.9997 69.5999C48.3997 70.2999 48.1997 71.1998 47.4997 71.6998C46.7997 72.1998 45.8998 71.8998 45.3998 71.1998C44.8998 70.4998 45.0998 69.4999 45.8998 69.0999Z" fill="#5C5C5C"/>
<path fill-rule="evenodd" clip-rule="evenodd" d="M42.0995 61.9999C42.7995 61.5999 43.6995 61.9998 44.0995 62.6998C44.4995 63.3998 44.1995 64.2998 43.3995 64.6998C42.6995 65.0998 41.7995 64.7999 41.3995 63.9999C40.9995 63.2999 41.2995 62.3999 42.0995 61.9999Z" fill="#5C5C5C"/>
<path fill-rule="evenodd" clip-rule="evenodd" d="M38.9999 54.6C39.7999 54.3 40.6999 54.7 40.8999 55.5C41.1999 56.3 40.7999 57.1 39.9999 57.4C39.1999 57.7 38.3999 57.3 37.9999 56.5C37.7999 55.8 38.1999 54.9 38.9999 54.6Z" fill="#5C5C5C"/>
<path fill-rule="evenodd" clip-rule="evenodd" d="M36.5999 47C37.3999 46.8 38.1998 47.3 38.4998 48C38.6998 48.8 38.2998 49.6 37.4998 49.8C36.6998 50 35.8999 49.6 35.5999 48.8C35.2999 48 35.7999 47.2 36.5999 47Z" fill="#5C5C5C"/>
<path fill-rule="evenodd" clip-rule="evenodd" d="M34.9001 39.0998C35.7001 38.9998 36.5001 39.4998 36.6001 40.2998C36.7001 41.0998 36.2001 41.8999 35.4001 41.9999C34.6001 42.1999 33.8001 41.5998 33.7001 40.7998C33.6001 40.0998 34.1001 39.2998 34.9001 39.0998Z" fill="#5C5C5C"/>
<path fill-rule="evenodd" clip-rule="evenodd" d="M34.0999 31.2C34.8999 31.2 35.5999 31.8 35.6999 32.6C35.7999 33.4 35.1 34.1 34.3 34.2C33.5 34.3 32.7999 33.7 32.6999 32.8C32.5999 32 33.1999 31.2 34.0999 31.2Z" fill="#5C5C5C"/>
<path fill-rule="evenodd" clip-rule="evenodd" d="M34 23.2C34.8 23.2 35.5 23.9 35.5 24.7C35.5 25.5 34.8 26.2 34 26.2C33.2 26.2 32.5 25.5 32.5 24.7C32.4 23.8 33.1 23.1 34 23.2Z" fill="#5C5C5C"/>
<path fill-rule="evenodd" clip-rule="evenodd" d="M34.6002 15.1999C35.4002 15.2999 36.0002 15.9999 35.9002 16.8999C35.8002 17.6999 35.1003 18.2999 34.3003 18.1999C33.5003 18.0999 32.8002 17.3999 32.9002 16.4999C33.0002 15.6999 33.8002 15.0999 34.6002 15.1999Z" fill="#5C5C5C"/>
<path fill-rule="evenodd" clip-rule="evenodd" d="M35.9999 7.3C36.7999 7.5 37.2999 8.29999 37.0999 9.09999C36.8999 9.89999 36.1999 10.4 35.3999 10.3C34.5999 10.2 33.9999 9.40001 34.1999 8.50001C34.2999 7.60001 35.1999 7.1 35.9999 7.3Z" fill="#5C5C5C"/>
<path fill-rule="evenodd" clip-rule="evenodd" d="M38.0999 -0.400042C38.8999 -0.100042 39.2999 0.699982 39.0999 1.49998C38.8999 2.29998 38.0999 2.69998 37.2999 2.49998C36.4999 2.29998 35.9999 1.39996 36.2999 0.599958C36.3999 -0.300042 37.2999 -0.700042 38.0999 -0.400042Z" fill="#5C5C5C"/>
<path fill-rule="evenodd" clip-rule="evenodd" d="M199.599 4.59986C198.799 4.79986 197.999 4.29986 197.699 3.59986C197.499 2.79986 197.899 1.99987 198.699 1.79987C199.499 1.59987 200.299 1.99987 200.599 2.79987C200.899 3.59987 200.399 4.39986 199.599 4.59986Z" fill="#5C5C5C"/>
<path fill-rule="evenodd" clip-rule="evenodd" d="M201.2 12.4999C200.4 12.5999 199.6 12.0999 199.5 11.2999C199.4 10.4999 199.9 9.69992 200.7 9.59992C201.5 9.39992 202.3 9.99993 202.4 10.7999C202.6 11.5999 202.1 12.3999 201.2 12.4999Z" fill="#5C5C5C"/>
<path fill-rule="evenodd" clip-rule="evenodd" d="M202.1 20.4999C201.3 20.4999 200.6 19.8999 200.5 19.0999C200.4 18.2999 201.1 17.5999 201.9 17.4999C202.7 17.3999 203.4 17.9998 203.5 18.8998C203.6 19.6998 202.9 20.3999 202.1 20.4999Z" fill="#5C5C5C"/>
<path fill-rule="evenodd" clip-rule="evenodd" d="M202.2 28.5C201.4 28.5 200.7 27.8 200.7 27C200.7 26.2 201.4 25.5 202.2 25.5C203 25.5 203.7 26.2 203.7 27C203.8 27.8 203.1 28.5 202.2 28.5Z" fill="#5C5C5C"/>
<path fill-rule="evenodd" clip-rule="evenodd" d="M201.6 36.4999C200.8 36.3999 200.2 35.6999 200.3 34.7999C200.4 33.9999 201.1 33.3999 201.9 33.4999C202.7 33.5999 203.4 34.2999 203.3 35.1999C203.2 35.9999 202.4 36.5999 201.6 36.4999Z" fill="#5C5C5C"/>
<path fill-rule="evenodd" clip-rule="evenodd" d="M200.2 44.2999C199.4 44.0999 198.9 43.2999 199.1 42.4999C199.3 41.6999 200 41.1999 200.8 41.2999C201.6 41.3999 202.2 42.1999 202 43.0999C201.8 43.9999 201 44.4999 200.2 44.2999Z" fill="#5C5C5C"/>
<path fill-rule="evenodd" clip-rule="evenodd" d="M198.1 52.0999C197.3 51.7999 196.9 50.9999 197.1 50.1999C197.3 49.3999 198.1 48.9999 198.9 49.1999C199.7 49.3999 200.2 50.2999 199.9 51.0999C199.8 51.8999 198.9 52.2999 198.1 52.0999Z" fill="#5C5C5C"/>
<path fill-rule="evenodd" clip-rule="evenodd" d="M195.2 59.5999C194.4 59.2999 194.1 58.3999 194.4 57.5999C194.7 56.7999 195.6 56.4999 196.3 56.7999C197.1 57.0999 197.4 57.9999 197.1 58.7999C196.9 59.4999 196 59.8999 195.2 59.5999Z" fill="#5C5C5C"/>
<path fill-rule="evenodd" clip-rule="evenodd" d="M191.7 66.6999C191 66.2999 190.7 65.3999 191.1 64.6999C191.5 63.9999 192.4 63.6999 193.1 64.0999C193.8 64.4999 194.1 65.3999 193.7 66.0999C193.4 66.8999 192.4 67.0999 191.7 66.6999Z" fill="#5C5C5C"/>
<path fill-rule="evenodd" clip-rule="evenodd" d="M187.5 73.4999C186.8 72.9999 186.7 72.0999 187.1 71.3999C187.5 70.6999 188.5 70.4999 189.2 70.9999C189.9 71.3999 190.1 72.3999 189.6 73.0999C189.1 73.7999 188.1 73.9999 187.5 73.4999Z" fill="#5C5C5C"/>
<path fill-rule="evenodd" clip-rule="evenodd" d="M182.6 79.8999C182 79.3999 181.9 78.3999 182.4 77.7999C182.9 77.1999 183.8 77.0999 184.5 77.5999C185.2 78.0999 185.3 79.0999 184.7 79.6999C184.2 80.3999 183.2 80.3999 182.6 79.8999Z" fill="#5C5C5C"/>
<path fill-rule="evenodd" clip-rule="evenodd" d="M177.2 85.7999C176.6 85.1999 176.6 84.2999 177.2 83.6999C177.8 83.0999 178.7 83.0999 179.3 83.6999C179.9 84.2999 179.9 85.1999 179.3 85.7999C178.7 86.3999 177.7 86.3999 177.2 85.7999Z" fill="#5C5C5C"/>
<path fill-rule="evenodd" clip-rule="evenodd" d="M171.2 91.1999C170.7 90.5999 170.8 89.6 171.4 89.1C172 88.6 173 88.6 173.5 89.3C174 89.9 174 90.8999 173.3 91.3999C172.7 91.8999 171.7 91.7999 171.2 91.1999Z" fill="#5C5C5C"/>
<path fill-rule="evenodd" clip-rule="evenodd" d="M164.799 95.9C164.299 95.2 164.499 94.3 165.199 93.8C165.899 93.3 166.799 93.4999 167.299 94.1999C167.799 94.8999 167.599 95.8 166.899 96.3C166.199 96.8 165.199 96.6 164.799 95.9Z" fill="#5C5C5C"/>
<path fill-rule="evenodd" clip-rule="evenodd" d="M157.9 99.9999C157.5 99.2999 157.8 98.3999 158.5 97.9999C159.2 97.5999 160.1 97.7999 160.5 98.5999C160.9 99.2999 160.7 100.2 159.9 100.7C159.2 101 158.3 100.8 157.9 99.9999Z" fill="#5C5C5C"/>
<path fill-rule="evenodd" clip-rule="evenodd" d="M150.7 103.5C150.4 102.7 150.7 101.9 151.5 101.5C152.2 101.2 153.1 101.5 153.5 102.3C153.8 103 153.5 103.9 152.7 104.3C151.9 104.6 151 104.3 150.7 103.5Z" fill="#5C5C5C"/>
<path fill-rule="evenodd" clip-rule="evenodd" d="M143.1 106.2C142.9 105.4 143.3 104.6 144.1 104.3C144.9 104 145.7 104.5 146 105.2C146.3 106 145.9 106.8 145 107.1C144.2 107.5 143.4 107 143.1 106.2Z" fill="#5C5C5C"/>
<path fill-rule="evenodd" clip-rule="evenodd" d="M135.4 108.2C135.2 107.4 135.7 106.6 136.5 106.4C137.3 106.2 138.1 106.7 138.3 107.5C138.5 108.3 138 109.1 137.2 109.3C136.3 109.6 135.5 109.1 135.4 108.2Z" fill="#5C5C5C"/>
<path fill-rule="evenodd" clip-rule="evenodd" d="M127.5 109.5C127.4 108.7 128 107.9 128.8 107.8C129.6 107.7 130.4 108.3 130.5 109.1C130.6 109.9 130 110.7 129.2 110.8C128.3 110.9 127.5 110.3 127.5 109.5Z" fill="#5C5C5C"/>
<path fill-rule="evenodd" clip-rule="evenodd" d="M119.5 110C119.5 109.2 120.1 108.5 121 108.5C121.8 108.5 122.5 109.1 122.6 110C122.6 110.8 122 111.5 121.1 111.5C120.2 111.5 119.5 110.8 119.5 110Z" fill="#5C5C5C"/>
<path fill-rule="evenodd" clip-rule="evenodd" d="M111.5 101.5C111.6 100.7 112.3 100.1 113.1 100.1C113.9 100.2 114.5 100.9 114.5 101.7C114.5 102.5 113.8 103.2 112.9 103.1C112 103.1 111.4 102.4 111.5 101.5Z" fill="#5C5C5C"/>
<path fill-rule="evenodd" clip-rule="evenodd" d="M103.601 100.4C103.801 99.5998 104.5 98.9998 105.3 99.1998C106.1 99.2998 106.601 100.1 106.501 100.9C106.401 101.7 105.6 102.3 104.8 102.1C104 102 103.501 101.3 103.601 100.4Z" fill="#5C5C5C"/>
<path fill-rule="evenodd" clip-rule="evenodd" d="M95.9002 98.4999C96.1002 97.6999 97.0002 97.1999 97.7002 97.4999C98.4002 97.7999 98.9002 98.5998 98.7002 99.3998C98.5002 100.2 97.7002 100.7 96.9002 100.4C96.1002 100.1 95.6002 99.2999 95.9002 98.4999Z" fill="#5C5C5C"/>
<path fill-rule="evenodd" clip-rule="evenodd" d="M88.4004 95.7998C88.7004 94.9998 89.6004 94.6999 90.3004 94.9999C91.0004 95.2999 91.4004 96.1998 91.1004 96.8998C90.8004 97.6998 89.9004 98.0998 89.2004 97.6998C88.5004 97.4998 88.1004 96.5998 88.4004 95.7998Z" fill="#5C5C5C"/>
<path fill-rule="evenodd" clip-rule="evenodd" d="M81.3 92.2998C81.7 91.5998 82.6 91.2998 83.3 91.6998C84 92.0998 84.2999 92.9998 83.8999 93.6998C83.4999 94.3998 82.5999 94.6998 81.8999 94.2998C81.0999 93.9998 80.9 92.9998 81.3 92.2998Z" fill="#5C5C5C"/>
<path fill-rule="evenodd" clip-rule="evenodd" d="M74.5001 88.0999C75.0001 87.3999 75.9001 87.2999 76.6001 87.6999C77.3001 88.0999 77.5001 89.0999 77.0001 89.7999C76.6001 90.4999 75.6001 90.6999 74.9001 90.1999C74.2001 89.6999 74.0001 88.7999 74.5001 88.0999Z" fill="#5C5C5C"/>
<path fill-rule="evenodd" clip-rule="evenodd" d="M68.2998 83.1998C68.7998 82.5998 69.7998 82.4998 70.3998 82.9998C70.9998 83.4998 71.0998 84.3998 70.5998 85.0998C70.0998 85.6998 69.0998 85.8998 68.4998 85.2998C67.7998 84.7998 67.6998 83.7998 68.2998 83.1998Z" fill="#5C5C5C"/>
<path fill-rule="evenodd" clip-rule="evenodd" d="M62.5001 77.6998C63.1001 77.0998 64.1001 77.1998 64.6001 77.6998C65.1001 78.2998 65.1001 79.1999 64.6001 79.7999C64.0001 80.3999 63.1001 80.3999 62.5001 79.7999C61.9001 79.1999 61.9001 78.1998 62.5001 77.6998Z" fill="#5C5C5C"/>
<path fill-rule="evenodd" clip-rule="evenodd" d="M57.4 71.5998C58.1 71.0998 59 71.1998 59.5 71.7998C60 72.3998 59.9 73.3998 59.2 73.8998C58.6 74.3998 57.6 74.2998 57.1 73.6998C56.6 72.9998 56.7 72.0998 57.4 71.5998Z" fill="#5C5C5C"/>
<path fill-rule="evenodd" clip-rule="evenodd" d="M52.9003 64.9999C53.6003 64.5999 54.5002 64.7999 55.0002 65.4999C55.4002 66.1999 55.2002 67.0999 54.5002 67.5999C53.8002 68.0999 52.9003 67.8999 52.4003 67.0999C52.0003 66.2999 52.2003 65.3999 52.9003 64.9999Z" fill="#5C5C5C"/>
<path fill-rule="evenodd" clip-rule="evenodd" d="M49.2001 57.9999C50.0001 57.5999 50.8001 57.9998 51.2001 58.6998C51.6001 59.3998 51.3001 60.2998 50.5001 60.6998C49.8001 61.0998 48.9001 60.7999 48.5001 59.9999C48.1001 59.1999 48.5001 58.2999 49.2001 57.9999Z" fill="#5C5C5C"/>
<path fill-rule="evenodd" clip-rule="evenodd" d="M46.2001 50.5998C47.0001 50.2998 47.8001 50.6999 48.1001 51.4999C48.4001 52.1999 48.0001 53.0998 47.2001 53.3998C46.4001 53.6998 45.6001 53.2999 45.2001 52.4999C45.0001 51.6999 45.4001 50.8998 46.2001 50.5998Z" fill="#5C5C5C"/>
<path fill-rule="evenodd" clip-rule="evenodd" d="M44.0001 42.8998C44.8001 42.6998 45.6001 43.1998 45.8001 43.9998C46.0001 44.7998 45.5001 45.5998 44.7001 45.7998C43.9001 45.9998 43.0001 45.4998 42.9001 44.6998C42.7001 43.8998 43.2001 43.0998 44.0001 42.8998Z" fill="#5C5C5C"/>
<path fill-rule="evenodd" clip-rule="evenodd" d="M42.7 35.0999C43.5 34.9999 44.3 35.5999 44.4 36.3999C44.5 37.1999 44 37.8999 43.1 38.0999C42.3 38.1999 41.5 37.6999 41.4 36.7999C41.3 35.9999 41.8 35.1999 42.7 35.0999Z" fill="#5C5C5C"/>
<path fill-rule="evenodd" clip-rule="evenodd" d="M42.1001 27.1998C42.9001 27.1998 43.6001 27.7999 43.6001 28.5999C43.6001 29.3999 43.0001 30.0999 42.2001 30.0999C41.4001 30.0999 40.7001 29.4998 40.6001 28.6998C40.6001 27.8998 41.3001 27.1998 42.1001 27.1998Z" fill="#5C5C5C"/>
<path fill-rule="evenodd" clip-rule="evenodd" d="M42.3998 19.1997C43.1998 19.2997 43.7998 19.9998 43.7998 20.7998C43.6998 21.5998 42.9998 22.1997 42.1998 22.1997C41.3998 22.1997 40.6998 21.4998 40.7998 20.5998C40.7998 19.7998 41.5998 19.0997 42.3998 19.1997Z" fill="#5C5C5C"/>
<path fill-rule="evenodd" clip-rule="evenodd" d="M43.5 11.2998C44.3 11.4998 44.9 12.1998 44.7 12.9998C44.6 13.7998 43.8 14.2998 43 14.1998C42.2 14.0998 41.6 13.2998 41.8 12.4998C41.9 11.6998 42.7 11.1998 43.5 11.2998Z" fill="#5C5C5C"/>
<path fill-rule="evenodd" clip-rule="evenodd" d="M45.4003 3.59979C46.2003 3.79979 46.7003 4.69978 46.4003 5.39978C46.2003 6.19978 45.3003 6.59978 44.5003 6.39978C43.7003 6.19978 43.2003 5.39979 43.5003 4.59979C43.8003 3.79979 44.6003 3.39979 45.4003 3.59979Z" fill="#5C5C5C"/>
<path fill-rule="evenodd" clip-rule="evenodd" d="M190 0.99987C189.2 1.29987 188.4 0.899846 188.1 0.0998456C187.8 -0.600154 188.2 -1.50018 189 -1.80018C189.8 -2.10018 190.6 -1.70015 191 -0.900154C191.2 -0.100154 190.7 0.79987 190 0.99987Z" fill="#5C5C5C"/>
<path fill-rule="evenodd" clip-rule="evenodd" d="M192.2 8.6998C191.4 8.8998 190.6 8.39983 190.4 7.59983C190.2 6.79983 190.7 5.99984 191.5 5.79984C192.3 5.59984 193.2 6.09982 193.3 6.89982C193.5 7.69982 193 8.4998 192.2 8.6998Z" fill="#5C5C5C"/>
<path fill-rule="evenodd" clip-rule="evenodd" d="M193.5 16.4999C192.7 16.5999 191.9 15.9999 191.8 15.1999C191.7 14.3999 192.2 13.6999 193.1 13.4999C193.9 13.3999 194.7 13.8999 194.8 14.7999C194.9 15.6999 194.3 16.3999 193.5 16.4999Z" fill="#5C5C5C"/>
<path fill-rule="evenodd" clip-rule="evenodd" d="M194.1 24.4999C193.3 24.4999 192.6 23.8999 192.6 23.0999C192.6 22.2999 193.2 21.5999 194 21.5999C194.8 21.5999 195.5 22.1999 195.6 22.9999C195.6 23.7999 194.9 24.4999 194.1 24.4999Z" fill="#5C5C5C"/>
<path fill-rule="evenodd" clip-rule="evenodd" d="M193.8 32.3999C193 32.2999 192.4 31.5999 192.4 30.7999C192.5 29.9999 193.2 29.3999 194 29.3999C194.8 29.3999 195.5 30.0999 195.4 30.9999C195.4 31.8999 194.6 32.4999 193.8 32.3999Z" fill="#5C5C5C"/>
<path fill-rule="evenodd" clip-rule="evenodd" d="M192.7 40.2998C191.9 40.0998 191.3 39.3998 191.5 38.5998C191.6 37.7998 192.4 37.2998 193.2 37.3998C194 37.4998 194.6 38.2998 194.4 39.0998C194.3 39.8998 193.5 40.4998 192.7 40.2998Z" fill="#5C5C5C"/>
<path fill-rule="evenodd" clip-rule="evenodd" d="M190.8 47.9999C190 47.7999 189.5 46.8999 189.8 46.1999C190 45.3999 190.9 44.9999 191.7 45.1999C192.5 45.3999 193 46.1999 192.7 46.9999C192.4 47.7999 191.6 48.2999 190.8 47.9999Z" fill="#5C5C5C"/>
<path fill-rule="evenodd" clip-rule="evenodd" d="M188.1 55.4999C187.3 55.1999 187 54.2999 187.3 53.5999C187.6 52.8999 188.5 52.4999 189.2 52.7999C190 53.0999 190.4 53.9998 190 54.6998C189.7 55.4998 188.9 55.7999 188.1 55.4999Z" fill="#5C5C5C"/>
<path fill-rule="evenodd" clip-rule="evenodd" d="M184.6 62.5999C183.9 62.1999 183.6 61.2999 184 60.5999C184.4 59.8999 185.3 59.6 186 60C186.7 60.4 187 61.3 186.6 62C186.3 62.8 185.3 63.0999 184.6 62.5999Z" fill="#5C5C5C"/>
<path fill-rule="evenodd" clip-rule="evenodd" d="M180.4 69.3998C179.7 68.8998 179.6 67.9998 180 67.2998C180.4 66.5998 181.4 66.3998 182.1 66.8998C182.8 67.2998 183 68.2998 182.5 68.9998C182 69.6998 181 69.8998 180.4 69.3998Z" fill="#5C5C5C"/>
<path fill-rule="evenodd" clip-rule="evenodd" d="M175.5 75.6998C174.9 75.1998 174.8 74.1999 175.3 73.5999C175.8 72.9999 176.7 72.8998 177.4 73.3998C178 73.8998 178.2 74.8999 177.6 75.4999C177 76.0999 176.1 76.1998 175.5 75.6998Z" fill="#5C5C5C"/>
<path fill-rule="evenodd" clip-rule="evenodd" d="M169.9 81.3999C169.3 80.7999 169.4 79.7999 169.9 79.2999C170.5 78.7999 171.4 78.7999 172 79.2999C172.6 79.8999 172.6 80.7999 172 81.3999C171.5 81.9999 170.5 81.9999 169.9 81.3999Z" fill="#5C5C5C"/>
<path fill-rule="evenodd" clip-rule="evenodd" d="M163.9 86.4998C163.4 85.7998 163.5 84.8998 164.1 84.3998C164.7 83.8998 165.7 83.9998 166.2 84.6998C166.7 85.2998 166.6 86.2998 166 86.7998C165.3 87.2998 164.4 87.1998 163.9 86.4998Z" fill="#5C5C5C"/>
<path fill-rule="evenodd" clip-rule="evenodd" d="M157.3 90.9998C156.9 90.2998 157.1 89.3998 157.8 88.8998C158.5 88.4998 159.4 88.6998 159.9 89.3998C160.4 90.0998 160.2 90.9998 159.4 91.4998C158.6 91.8998 157.7 91.6998 157.3 90.9998Z" fill="#5C5C5C"/>
<path fill-rule="evenodd" clip-rule="evenodd" d="M150.2 94.6998C149.8 93.8998 150.2 93.0998 150.9 92.6998C151.6 92.2998 152.5 92.5999 152.9 93.3999C153.3 94.0999 153 94.9999 152.2 95.3999C151.5 95.7999 150.6 95.3998 150.2 94.6998Z" fill="#5C5C5C"/>
<path fill-rule="evenodd" clip-rule="evenodd" d="M142.9 97.6999C142.6 96.8999 143 96.0999 143.8 95.7999C144.5 95.4999 145.4 95.8999 145.7 96.6999C146 97.4999 145.6 98.2999 144.8 98.6999C144 98.8999 143.1 98.4999 142.9 97.6999Z" fill="#5C5C5C"/>
<path fill-rule="evenodd" clip-rule="evenodd" d="M135.2 99.8998C135 99.0998 135.5 98.2998 136.3 98.0998C137.1 97.8998 137.9 98.3997 138.1 99.1997C138.3 99.9997 137.8 100.9 137 101C136.2 101.2 135.4 100.7 135.2 99.8998Z" fill="#5C5C5C"/>
<path fill-rule="evenodd" clip-rule="evenodd" d="M127.4 101.3C127.3 100.5 127.9 99.6999 128.7 99.5999C129.5 99.4999 130.2 99.9999 130.4 100.9C130.5 101.7 130 102.5 129.1 102.6C128.2 102.7 127.5 102.1 127.4 101.3Z" fill="#5C5C5C"/>
<path fill-rule="evenodd" clip-rule="evenodd" d="M119.4 101.8C119.4 101 120 100.3 120.8 100.3C121.6 100.3 122.3 100.9 122.3 101.7C122.3 102.5 121.7 103.2 120.9 103.3C120.1 103.3 119.5 102.6 119.4 101.8Z" fill="#5C5C5C"/>
<path fill-rule="evenodd" clip-rule="evenodd" d="M111.4 93.2999C111.5 92.4999 112.2 91.8999 113 91.8999C113.8 91.9999 114.4 92.6999 114.4 93.4999C114.4 94.2999 113.6 94.8999 112.8 94.8999C112 94.8999 111.3 94.0999 111.4 93.2999Z" fill="#5C5C5C"/>
<path fill-rule="evenodd" clip-rule="evenodd" d="M103.5 92.0999C103.7 91.2999 104.5 90.7999 105.3 90.8999C106.1 90.9999 106.6 91.7999 106.5 92.5999C106.4 93.3999 105.6 93.9999 104.7 93.7999C103.8 93.6999 103.3 92.7999 103.5 92.0999Z" fill="#5C5C5C"/>
<path fill-rule="evenodd" clip-rule="evenodd" d="M95.8 89.9C96.1 89.1 96.9 88.7 97.7 89C98.5 89.3 98.9 90.1 98.7 90.9C98.5 91.7 97.6 92.2 96.8 91.9C95.9 91.5 95.5 90.6 95.8 89.9Z" fill="#5C5C5C"/>
<path fill-rule="evenodd" clip-rule="evenodd" d="M88.2998 86.8C88.6998 86.1 89.5998 85.6999 90.2998 86.0999C90.9998 86.3999 91.3998 87.2999 90.9998 88.0999C90.6998 88.8999 89.7998 89.2 88.9998 88.8C88.2998 88.4 87.9998 87.5 88.2998 86.8Z" fill="#5C5C5C"/>
<path fill-rule="evenodd" clip-rule="evenodd" d="M81.2997 82.7999C81.7997 82.0999 82.6996 81.8999 83.3996 82.2999C84.0996 82.6999 84.2996 83.5999 83.8996 84.2999C83.4996 84.9999 82.4997 85.2999 81.7997 84.7999C81.0997 84.3999 80.8997 83.4999 81.2997 82.7999Z" fill="#5C5C5C"/>
<path fill-rule="evenodd" clip-rule="evenodd" d="M74.9 78.0999C75.4 77.4999 76.4 77.3998 77 77.8998C77.6 78.3998 77.7001 79.2999 77.3001 79.9999C76.8001 80.6999 75.9 80.7998 75.2 80.1998C74.4 79.6998 74.3 78.6999 74.9 78.0999Z" fill="#5C5C5C"/>
<path fill-rule="evenodd" clip-rule="evenodd" d="M68.9998 72.5999C69.5998 71.9999 70.4998 71.9999 71.0998 72.5999C71.6998 73.1999 71.6998 74.0999 71.0998 74.6999C70.4998 75.2999 69.5998 75.2999 68.9998 74.6999C68.3998 74.0999 68.3998 73.1999 68.9998 72.5999Z" fill="#5C5C5C"/>
<path fill-rule="evenodd" clip-rule="evenodd" d="M63.7999 66.5C64.4999 66 65.3999 66.1 65.8999 66.8C66.3999 67.4 66.2999 68.4 65.5999 68.9C64.9999 69.4 63.9999 69.3 63.4999 68.6C62.9999 67.9 63.0999 67 63.7999 66.5Z" fill="#5C5C5C"/>
<path fill-rule="evenodd" clip-rule="evenodd" d="M59.3996 59.7C60.0996 59.3 60.9996 59.5 61.3996 60.2C61.7996 60.9 61.5996 61.8 60.8996 62.2C60.1996 62.6 59.2997 62.4 58.7997 61.7C58.3997 61.1 58.6996 60.2 59.3996 59.7Z" fill="#5C5C5C"/>
<path fill-rule="evenodd" clip-rule="evenodd" d="M55.7997 52.6C56.5997 52.3 57.4997 52.6 57.7997 53.3C58.0997 54 57.7997 54.9 57.0997 55.3C56.2997 55.7 55.4997 55.3 55.0997 54.6C54.6997 53.8 54.9997 52.9 55.7997 52.6Z" fill="#5C5C5C"/>
<path fill-rule="evenodd" clip-rule="evenodd" d="M52.9999 44.9999C53.7999 44.7999 54.6 45.1999 54.9 45.9999C55.2 46.7999 54.6999 47.5999 53.9999 47.8999C53.1999 48.1999 52.4 47.6999 52.1 46.8999C51.8 46.0999 52.2999 45.1999 52.9999 44.9999Z" fill="#5C5C5C"/>
<path fill-rule="evenodd" clip-rule="evenodd" d="M51.1999 37.1998C51.9999 37.0998 52.7999 37.5998 52.8999 38.3998C52.9999 39.1998 52.4999 39.9998 51.6999 40.1998C50.8999 40.3998 50.0999 39.7999 49.8999 38.9999C49.8999 38.0999 50.3999 37.2998 51.1999 37.1998Z" fill="#5C5C5C"/>
<path fill-rule="evenodd" clip-rule="evenodd" d="M50.3001 29.2C51.1001 29.2 51.8001 29.8 51.9001 30.6C52.0001 31.4 51.3001 32.1 50.5001 32.2C49.7001 32.3 49.0001 31.7 48.9001 30.8C48.9001 29.9 49.5001 29.2 50.3001 29.2Z" fill="#5C5C5C"/>
<path fill-rule="evenodd" clip-rule="evenodd" d="M50.3998 21.2C51.1998 21.3 51.7998 22 51.7998 22.8C51.7998 23.6 51.0998 24.3 50.2998 24.2C49.4998 24.2 48.7998 23.5 48.7998 22.6C48.8998 21.7 49.5998 21.1 50.3998 21.2Z" fill="#5C5C5C"/>
<path fill-rule="evenodd" clip-rule="evenodd" d="M51.5 13.1999C52.3 13.3999 52.9 14.0999 52.7 14.8999C52.5 15.6999 51.8 16.2999 51 16.0999C50.2 15.9999 49.6 15.1999 49.8 14.3999C49.9 13.5999 50.6 12.9999 51.5 13.1999Z" fill="#5C5C5C"/>
<path fill-rule="evenodd" clip-rule="evenodd" d="M53.3997 5.39989C54.1997 5.59989 54.5997 6.49991 54.3997 7.29991C54.1997 8.09991 53.2997 8.49991 52.4997 8.29991C51.6997 8.09991 51.1997 7.29989 51.4997 6.39989C51.7997 5.59989 52.5997 5.09989 53.3997 5.39989Z" fill="#5C5C5C"/>
<path fill-rule="evenodd" clip-rule="evenodd" d="M56.2998 -2.10016C57.0998 -1.80016 57.3998 -0.900156 57.0998 -0.100156C56.7998 0.599844 55.8997 0.999832 55.1997 0.699832C54.3997 0.399832 54.0997 -0.500168 54.3997 -1.30017C54.5997 -2.10017 55.4998 -2.50016 56.2998 -2.10016Z" fill="#5C5C5C"/>
<path fill-rule="evenodd" clip-rule="evenodd" d="M181.9 2.79987C181.1 3.09987 180.3 2.69984 180 1.89984C179.7 1.09984 180.1 0.299878 180.8 -0.000122065C181.6 -0.300122 182.4 0.0998414 182.8 0.899841C183.1 1.59984 182.7 2.49987 181.9 2.79987Z" fill="#5C5C5C"/>
<path fill-rule="evenodd" clip-rule="evenodd" d="M184.2 10.4999C183.4 10.6999 182.6 10.1999 182.4 9.39988C182.2 8.59988 182.7 7.79989 183.5 7.59989C184.3 7.39989 185.1 7.89986 185.4 8.69986C185.5 9.49986 185 10.2999 184.2 10.4999Z" fill="#5C5C5C"/>
<path fill-rule="evenodd" clip-rule="evenodd" d="M185.5 18.3999C184.7 18.4999 183.9 17.9 183.8 17.1C183.7 16.3 184.3 15.4999 185.1 15.3999C185.9 15.2999 186.7 15.8999 186.8 16.6999C186.9 17.5999 186.3 18.3999 185.5 18.3999Z" fill="#5C5C5C"/>
<path fill-rule="evenodd" clip-rule="evenodd" d="M185.9 26.5C185.1 26.5 184.4 25.8 184.4 25C184.4 24.2 185 23.5 185.9 23.5C186.7 23.5 187.4 24.1 187.4 25C187.4 25.8 186.7 26.5 185.9 26.5Z" fill="#5C5C5C"/>
<path fill-rule="evenodd" clip-rule="evenodd" d="M185.4 34.4999C184.6 34.3999 184 33.6999 184.1 32.7999C184.2 31.9999 184.9 31.3999 185.7 31.4999C186.5 31.5999 187.2 32.2999 187.1 33.1999C186.9 33.9999 186.2 34.5999 185.4 34.4999Z" fill="#5C5C5C"/>
<path fill-rule="evenodd" clip-rule="evenodd" d="M183.9 42.3999C183.1 42.1999 182.6 41.3999 182.8 40.5999C183 39.7999 183.8 39.2999 184.6 39.4999C185.4 39.6999 185.9 40.4999 185.7 41.2999C185.5 42.0999 184.7 42.5999 183.9 42.3999Z" fill="#5C5C5C"/>
<path fill-rule="evenodd" clip-rule="evenodd" d="M181.5 50C180.7 49.7 180.4 48.9 180.6 48.1C180.9 47.3 181.7 46.8999 182.5 47.1999C183.3 47.4999 183.7 48.3 183.4 49.1C183.1 49.9 182.2 50.3 181.5 50Z" fill="#5C5C5C"/>
<path fill-rule="evenodd" clip-rule="evenodd" d="M178.1 57.4C177.4 57 177.1 56.1 177.4 55.4C177.8 54.7 178.7 54.3999 179.4 54.6999C180.2 54.9999 180.5 55.9999 180.1 56.6999C179.8 57.3999 178.9 57.7 178.1 57.4Z" fill="#5C5C5C"/>
<path fill-rule="evenodd" clip-rule="evenodd" d="M174 64.1999C173.3 63.6999 173.2 62.7999 173.6 62.0999C174 61.3999 175 61.1999 175.7 61.6999C176.4 62.0999 176.6 63.0999 176.1 63.7999C175.6 64.4999 174.7 64.6999 174 64.1999Z" fill="#5C5C5C"/>
<path fill-rule="evenodd" clip-rule="evenodd" d="M169 70.5999C168.4 70.0999 168.3 69.0999 168.8 68.4999C169.3 67.8999 170.2 67.7999 170.9 68.2999C171.5 68.7999 171.7 69.7998 171.1 70.3998C170.6 70.9998 169.7 71.0999 169 70.5999Z" fill="#5C5C5C"/>
<path fill-rule="evenodd" clip-rule="evenodd" d="M163.4 76.3C162.9 75.7 162.9 74.7 163.5 74.2C164.1 73.6 165 73.7 165.6 74.3C166.2 74.9 166.2 75.8 165.5 76.4C164.9 77 163.9 76.9 163.4 76.3Z" fill="#5C5C5C"/>
<path fill-rule="evenodd" clip-rule="evenodd" d="M157.1 81.2998C156.6 80.5998 156.8 79.6998 157.4 79.1998C158.1 78.6998 159 78.7999 159.5 79.4999C160 80.0999 159.9 81.0998 159.2 81.5998C158.5 82.0998 157.6 81.9998 157.1 81.2998Z" fill="#5C5C5C"/>
<path fill-rule="evenodd" clip-rule="evenodd" d="M150.3 85.4999C149.9 84.7999 150.2 83.8999 150.9 83.4999C151.6 83.0999 152.5 83.2999 152.9 84.0999C153.3 84.7999 153.1 85.6999 152.3 86.1999C151.6 86.4999 150.7 86.2999 150.3 85.4999Z" fill="#5C5C5C"/>
<path fill-rule="evenodd" clip-rule="evenodd" d="M143 88.8998C142.7 88.0998 143.1 87.2999 143.8 86.9999C144.5 86.6999 145.4 86.9998 145.8 87.7998C146.1 88.5998 145.8 89.4998 145 89.7998C144.2 90.0998 143.3 89.6998 143 88.8998Z" fill="#5C5C5C"/>
<path fill-rule="evenodd" clip-rule="evenodd" d="M135.4 91.3999C135.2 90.5999 135.7 89.7999 136.4 89.4999C137.2 89.2999 138 89.6999 138.3 90.4999C138.5 91.2999 138.1 92.0999 137.3 92.3999C136.4 92.6999 135.6 92.1999 135.4 91.3999Z" fill="#5C5C5C"/>
<path fill-rule="evenodd" clip-rule="evenodd" d="M127.5 92.9999C127.4 92.1999 128 91.4999 128.8 91.2999C129.6 91.1999 130.4 91.6999 130.5 92.4999C130.7 93.2999 130.1 94.0999 129.3 94.1999C128.4 94.3999 127.6 93.7999 127.5 92.9999Z" fill="#5C5C5C"/>
<path fill-rule="evenodd" clip-rule="evenodd" d="M119.5 93.6C119.5 92.8 120.1 92.1 120.9 92.1C121.7 92.1 122.4 92.7 122.5 93.5C122.6 94.3 121.9 95.1 121.1 95.1C120.2 95.1 119.5 94.4 119.5 93.6Z" fill="#5C5C5C"/>
<path fill-rule="evenodd" clip-rule="evenodd" d="M111.5 85.1C111.6 84.3 112.3 83.7 113.1 83.7C113.9 83.8 114.5 84.5 114.5 85.3C114.5 86.1 113.7 86.7 112.9 86.7C112 86.7 111.4 85.9 111.5 85.1Z" fill="#5C5C5C"/>
<path fill-rule="evenodd" clip-rule="evenodd" d="M103.6 83.6999C103.8 82.8999 104.6 82.3999 105.4 82.5999C106.2 82.7999 106.7 83.5999 106.5 84.3999C106.3 85.1999 105.5 85.7999 104.7 85.5999C103.9 85.2999 103.4 84.4999 103.6 83.6999Z" fill="#5C5C5C"/>
<path fill-rule="evenodd" clip-rule="evenodd" d="M96.1004 81.1999C96.4004 80.3999 97.3004 79.9999 98.0004 80.2999C98.8004 80.5999 99.2004 81.3999 98.9004 82.1999C98.6004 82.9999 97.8004 83.3999 97.0004 83.0999C96.1004 82.8999 95.8004 81.9999 96.1004 81.1999Z" fill="#5C5C5C"/>
<path fill-rule="evenodd" clip-rule="evenodd" d="M88.9 77.7999C89.3 77.0999 90.2 76.7999 90.9 77.1999C91.6 77.5999 91.9 78.4999 91.5 79.1999C91.1 79.8999 90.2 80.1999 89.5 79.7999C88.7 79.4999 88.5 78.4999 88.9 77.7999Z" fill="#5C5C5C"/>
<path fill-rule="evenodd" clip-rule="evenodd" d="M82.2001 73.4C82.7001 72.7 83.6001 72.6 84.3001 73.1C85.0001 73.6 85.1001 74.5 84.6001 75.2C84.1001 75.9 83.2001 76 82.5001 75.6C81.8001 75.1 81.7001 74.1 82.2001 73.4Z" fill="#5C5C5C"/>
<path fill-rule="evenodd" clip-rule="evenodd" d="M76.2003 68.1999C76.8003 67.5999 77.7003 67.5999 78.3003 68.0999C78.9003 68.6999 78.9003 69.5999 78.4003 70.1999C77.8003 70.7999 76.9003 70.8999 76.3003 70.2999C75.6003 69.7999 75.6003 68.7999 76.2003 68.1999Z" fill="#5C5C5C"/>
<path fill-rule="evenodd" clip-rule="evenodd" d="M70.9002 62.2999C71.6002 61.7999 72.5002 61.8999 73.0002 62.4999C73.5002 63.0999 73.4002 63.9999 72.8002 64.5999C72.2002 65.0999 71.2002 65.0998 70.7002 64.3998C70.1002 63.6998 70.2002 62.7999 70.9002 62.2999Z" fill="#5C5C5C"/>
<path fill-rule="evenodd" clip-rule="evenodd" d="M66.5002 55.6998C67.2002 55.2998 68.1002 55.4998 68.5002 56.1998C68.9002 56.8998 68.7002 57.7998 68.0002 58.1998C67.3002 58.6998 66.4003 58.3998 65.9003 57.6998C65.5003 56.9998 65.7002 56.0998 66.5002 55.6998Z" fill="#5C5C5C"/>
<path fill-rule="evenodd" clip-rule="evenodd" d="M62.9 48.4999C63.7 48.1999 64.5 48.4998 64.9 49.2998C65.2 49.9998 64.9001 50.8998 64.1001 51.2998C63.4001 51.6998 62.5001 51.2999 62.1001 50.4999C61.8001 49.6999 62.2 48.7999 62.9 48.4999Z" fill="#5C5C5C"/>
<path fill-rule="evenodd" clip-rule="evenodd" d="M60.4001 41C61.2001 40.8 62.0001 41.3 62.3001 42C62.5001 42.8 62.1001 43.6 61.3001 43.8C60.5001 44.1 59.7001 43.6 59.4001 42.8C59.1001 42 59.6001 41.2 60.4001 41Z" fill="#5C5C5C"/>
<path fill-rule="evenodd" clip-rule="evenodd" d="M58.9001 33.0999C59.7001 32.9999 60.5001 33.5999 60.6001 34.3999C60.7001 35.1999 60.2001 35.8999 59.4001 36.0999C58.6001 36.1999 57.8001 35.6999 57.7001 34.7999C57.5001 33.9999 58.1001 33.1999 58.9001 33.0999Z" fill="#5C5C5C"/>
<path fill-rule="evenodd" clip-rule="evenodd" d="M58.5 25.2C59.3 25.2 60 25.9 60 26.7C60 27.5 59.4 28.2 58.5 28.2C57.7 28.2 57 27.6 57 26.7C56.9 25.8 57.6 25.2 58.5 25.2Z" fill="#5C5C5C"/>
<path fill-rule="evenodd" clip-rule="evenodd" d="M59.1002 17.1999C59.9002 17.2999 60.5002 18.0999 60.4002 18.8999C60.3002 19.6999 59.6002 20.2999 58.7002 20.1999C57.9002 20.0999 57.3002 19.3999 57.4002 18.4999C57.5002 17.6999 58.3002 17.0999 59.1002 17.1999Z" fill="#5C5C5C"/>
<path fill-rule="evenodd" clip-rule="evenodd" d="M60.7001 9.39993C61.5001 9.59993 62.0001 10.3999 61.7001 11.1999C61.5001 11.9999 60.7001 12.5 59.9001 12.3C59.1001 12.1 58.6001 11.3 58.8001 10.5C59.1001 9.69997 60.0001 9.19993 60.7001 9.39993Z" fill="#5C5C5C"/>
<path fill-rule="evenodd" clip-rule="evenodd" d="M63.4003 1.89987C64.2003 2.19987 64.5003 3.09989 64.2003 3.79989C63.9003 4.49989 63.0004 4.89988 62.3004 4.59988C61.5004 4.29988 61.1003 3.39988 61.5003 2.59988C61.8003 1.99988 62.7003 1.59987 63.4003 1.89987Z" fill="#5C5C5C"/>
<path fill-rule="evenodd" clip-rule="evenodd" d="M174.6 6.89983C173.8 7.19983 173 6.79987 172.7 5.99987C172.4 5.29987 172.8 4.39985 173.6 4.09985C174.4 3.79985 175.3 4.19987 175.6 4.99987C175.8 5.69987 175.4 6.59983 174.6 6.89983Z" fill="#5C5C5C"/>
<path fill-rule="evenodd" clip-rule="evenodd" d="M176.7 14.5999C175.9 14.7999 175.1 14.1999 174.9 13.4999C174.7 12.6999 175.2 11.8999 176 11.6999C176.8 11.4999 177.6 11.9999 177.8 12.7999C178 13.5999 177.5 14.3999 176.7 14.5999Z" fill="#5C5C5C"/>
<path fill-rule="evenodd" clip-rule="evenodd" d="M177.6 22.4999C176.8 22.4999 176.1 21.8999 176 21.0999C175.9 20.2999 176.6 19.5999 177.4 19.4999C178.2 19.3999 179 19.9998 179 20.8998C179.1 21.6998 178.5 22.3999 177.6 22.4999Z" fill="#5C5C5C"/>
<path fill-rule="evenodd" clip-rule="evenodd" d="M177.5 30.3999C176.7 30.2999 176.1 29.5999 176.1 28.7999C176.1 27.9999 176.8 27.3999 177.6 27.3999C178.4 27.3999 179.1 28.0999 179.1 28.9999C179.1 29.8999 178.4 30.4999 177.5 30.3999Z" fill="#5C5C5C"/>
<path fill-rule="evenodd" clip-rule="evenodd" d="M176.4 38.2999C175.6 38.0999 175.1 37.2999 175.2 36.5999C175.3 35.7999 176.1 35.2999 176.9 35.3999C177.7 35.4999 178.3 36.2999 178.1 37.0999C178 37.9999 177.2 38.4999 176.4 38.2999Z" fill="#5C5C5C"/>
<path fill-rule="evenodd" clip-rule="evenodd" d="M174.2 46C173.4 45.7 173 44.9 173.3 44.1C173.6 43.3 174.4 42.8999 175.2 43.1999C176 43.3999 176.4 44.3 176.2 45.1C175.9 45.8 175 46.3 174.2 46Z" fill="#5C5C5C"/>
<path fill-rule="evenodd" clip-rule="evenodd" d="M171 53.3C170.3 52.9 170 52 170.3 51.3C170.7 50.6 171.5 50.3 172.3 50.6C173 50.9 173.4 51.9 173 52.6C172.7 53.4 171.8 53.7 171 53.3Z" fill="#5C5C5C"/>
<path fill-rule="evenodd" clip-rule="evenodd" d="M166.901 60.0999C166.201 59.5999 166.101 58.6999 166.501 57.9999C166.901 57.2999 167.901 57.0999 168.601 57.5999C169.301 57.9999 169.501 58.9999 169.001 59.6999C168.501 60.3999 167.601 60.5999 166.901 60.0999Z" fill="#5C5C5C"/>
<path fill-rule="evenodd" clip-rule="evenodd" d="M161.9 66.2999C161.3 65.6999 161.3 64.7999 161.8 64.1999C162.3 63.5999 163.3 63.4999 163.9 64.0999C164.5 64.5999 164.6 65.5999 164 66.1999C163.5 66.7999 162.5 66.8999 161.9 66.2999Z" fill="#5C5C5C"/>
<path fill-rule="evenodd" clip-rule="evenodd" d="M156.101 71.7999C155.601 71.1999 155.6 70.1999 156.2 69.6999C156.8 69.1999 157.801 69.1999 158.301 69.7999C158.901 70.3999 158.8 71.3999 158.2 71.8999C157.6 72.4999 156.601 72.3999 156.101 71.7999Z" fill="#5C5C5C"/>
<path fill-rule="evenodd" clip-rule="evenodd" d="M149.6 76.4C149.2 75.7 149.4 74.8 150 74.3C150.7 73.9 151.6 74 152.1 74.7C152.6 75.4 152.4 76.3 151.7 76.8C151 77.3 150.1 77.1 149.6 76.4Z" fill="#5C5C5C"/>
<path fill-rule="evenodd" clip-rule="evenodd" d="M142.6 80.2C142.3 79.4 142.6 78.6 143.3 78.2C144 77.8 144.9 78.1 145.3 78.9C145.7 79.6 145.4 80.5 144.6 80.9C143.9 81.3 143 80.9 142.6 80.2Z" fill="#5C5C5C"/>
<path fill-rule="evenodd" clip-rule="evenodd" d="M135.2 82.9999C135 82.1999 135.4 81.3999 136.2 81.0999C137 80.7999 137.8 81.2999 138.1 81.9999C138.4 82.7999 138 83.5999 137.1 83.8999C136.2 84.1999 135.4 83.7999 135.2 82.9999Z" fill="#5C5C5C"/>
<path fill-rule="evenodd" clip-rule="evenodd" d="M127.4 84.6999C127.3 83.8999 127.8 83.1 128.6 83C129.4 82.9 130.2 83.3999 130.3 84.1999C130.5 84.9999 129.9 85.7999 129.1 85.8999C128.3 86.0999 127.5 85.5999 127.4 84.6999Z" fill="#5C5C5C"/>
<path fill-rule="evenodd" clip-rule="evenodd" d="M119.4 85.3999C119.4 84.5999 120 83.8999 120.8 83.8999C121.6 83.8999 122.3 84.4999 122.4 85.2999C122.5 86.0999 121.8 86.8999 121 86.8999C120.2 86.8999 119.5 86.2999 119.4 85.3999Z" fill="#5C5C5C"/>
<path fill-rule="evenodd" clip-rule="evenodd" d="M111.4 76.7999C111.5 75.9999 112.2 75.3999 113 75.4999C113.8 75.4999 114.4 76.1999 114.4 77.0999C114.3 77.8999 113.6 78.5999 112.7 78.4999C111.9 78.3999 111.3 77.5999 111.4 76.7999Z" fill="#5C5C5C"/>
<path fill-rule="evenodd" clip-rule="evenodd" d="M103.5 75.0998C103.7 74.2998 104.6 73.7998 105.3 73.9998C106.1 74.1998 106.6 74.9998 106.4 75.7998C106.2 76.5998 105.4 77.0998 104.6 76.8998C103.8 76.7998 103.3 75.8998 103.5 75.0998Z" fill="#5C5C5C"/>
<path fill-rule="evenodd" clip-rule="evenodd" d="M95.9996 72.1998C96.3996 71.4998 97.1996 71.0999 97.9996 71.4999C98.6996 71.8999 99.0996 72.6999 98.7996 73.4999C98.4996 74.2999 97.5996 74.6998 96.7996 74.2998C95.9996 73.8998 95.5996 72.9998 95.9996 72.1998Z" fill="#5C5C5C"/>
<path fill-rule="evenodd" clip-rule="evenodd" d="M88.9997 68.1999C89.1997 67.8999 89.5997 67.6999 89.8997 67.5999C90.2997 67.4999 90.6997 67.5999 90.9997 67.7999C91.6997 68.1999 91.8997 69.0999 91.4997 69.7999C91.0997 70.4999 90.0997 70.6999 89.3997 70.2999C88.9997 70.0999 88.7997 69.6999 88.6997 69.3999C88.6997 68.9999 88.6997 68.5999 88.9997 68.1999Z" fill="#5C5C5C"/>
<path fill-rule="evenodd" clip-rule="evenodd" d="M82.6998 63.0998C83.2998 62.4998 84.1998 62.4998 84.7998 62.9998C85.3998 63.4998 85.3998 64.4998 84.8998 65.0998C84.3998 65.6998 83.3998 65.7998 82.7998 65.1998C82.1998 64.6998 82.1998 63.6998 82.6998 63.0998Z" fill="#5C5C5C"/>
<path fill-rule="evenodd" clip-rule="evenodd" d="M77.2998 57.0999C77.9998 56.5999 78.8998 56.6998 79.3998 57.3998C79.8998 57.9998 79.8998 58.8999 79.1998 59.4999C78.5998 59.9999 77.5998 59.9999 76.9998 59.2999C76.5998 58.5999 76.6998 57.5999 77.2998 57.0999Z" fill="#5C5C5C"/>
<path fill-rule="evenodd" clip-rule="evenodd" d="M72.9003 50.3998C73.6003 49.9998 74.6002 50.1998 75.0002 50.8998C75.4002 51.5998 75.2002 52.4998 74.5002 52.9998C73.8002 53.3998 72.9003 53.1998 72.4003 52.4998C71.9003 51.6998 72.2003 50.7998 72.9003 50.3998Z" fill="#5C5C5C"/>
<path fill-rule="evenodd" clip-rule="evenodd" d="M69.6 42.9999C70.4 42.6999 71.2 43.0998 71.5 43.8998C71.8 44.6998 71.4 45.4998 70.6 45.8998C69.8 46.1998 69 45.7999 68.7 44.9999C68.5 44.1999 68.9 43.2999 69.6 42.9999Z" fill="#5C5C5C"/>
<path fill-rule="evenodd" clip-rule="evenodd" d="M67.5 35.1999C68.3 34.9999 69 35.5999 69.2 36.3999C69.4 37.1999 68.9001 37.9999 68.1001 38.1999C67.3001 38.3999 66.5001 37.8999 66.3001 36.9999C66.1001 36.1999 66.7 35.3999 67.5 35.1999Z" fill="#5C5C5C"/>
<path fill-rule="evenodd" clip-rule="evenodd" d="M66.6998 27.1998C67.4998 27.1998 68.1998 27.7999 68.2998 28.5999C68.2998 29.3999 67.6998 30.0998 66.8998 30.1998C66.0998 30.2998 65.3998 29.5999 65.2998 28.7999C65.1998 27.8999 65.8998 27.1998 66.6998 27.1998Z" fill="#5C5C5C"/>
<path fill-rule="evenodd" clip-rule="evenodd" d="M67.1002 19.0999C67.9002 19.1999 68.5002 19.8999 68.4002 20.6999C68.4002 21.4999 67.7003 22.0999 66.8003 22.0999C66.0003 21.9999 65.3002 21.2999 65.4002 20.3999C65.5002 19.5999 66.3002 18.9999 67.1002 19.0999Z" fill="#5C5C5C"/>
<path fill-rule="evenodd" clip-rule="evenodd" d="M68.8003 11.1999C69.6003 11.3999 70.1002 12.2999 69.9002 12.9999C69.7002 13.7999 68.9002 14.2999 68.1002 14.0999C67.3002 13.8999 66.8002 13.0999 67.0002 12.2999C67.2002 11.4999 68.0003 10.9999 68.8003 11.1999Z" fill="#5C5C5C"/>
<path fill-rule="evenodd" clip-rule="evenodd" d="M71.7002 3.6998C72.4002 4.0998 72.8002 4.8998 72.4002 5.6998C72.0002 6.3998 71.2002 6.79985 70.4002 6.49985C69.6002 6.19985 69.2002 5.29985 69.6002 4.49985C70.0002 3.69985 70.9002 3.3998 71.7002 3.6998Z" fill="#5C5C5C"/>
<path fill-rule="evenodd" clip-rule="evenodd" d="M163.3 1.19984C162.6 1.59984 161.6 1.39984 161.2 0.699839C160.8 -0.000161313 161 -0.900137 161.7 -1.40014C162.4 -1.80014 163.3 -1.60014 163.8 -0.900137C164.3 -0.100137 164 0.899839 163.3 1.19984Z" fill="#5C5C5C"/>
<path fill-rule="evenodd" clip-rule="evenodd" d="M166.5 8.59985C165.7 8.89985 164.9 8.49982 164.6 7.69982C164.3 6.89982 164.7 6.09982 165.5 5.69982C166.3 5.39982 167.1 5.79985 167.4 6.59985C167.7 7.49985 167.3 8.39985 166.5 8.59985Z" fill="#5C5C5C"/>
<path fill-rule="evenodd" clip-rule="evenodd" d="M168.6 16.3999C167.8 16.5999 167.1 15.9998 166.9 15.1998C166.7 14.3998 167.2 13.5999 168 13.3999C168.8 13.1999 169.6 13.6999 169.8 14.5999C170.1 15.4999 169.4 16.2999 168.6 16.3999Z" fill="#5C5C5C"/>
<path fill-rule="evenodd" clip-rule="evenodd" d="M169.5 24.3998C168.7 24.3998 168 23.7998 167.9 22.9998C167.9 22.1998 168.5 21.4998 169.3 21.3998C170.1 21.2998 170.8 21.9998 170.9 22.7998C170.9 23.6998 170.3 24.3998 169.5 24.3998Z" fill="#5C5C5C"/>
<path fill-rule="evenodd" clip-rule="evenodd" d="M169.1 32.4999C168.3 32.3999 167.7 31.6998 167.8 30.8998C167.8 30.0998 168.5 29.4999 169.4 29.4999C170.2 29.5999 170.9 30.2998 170.8 31.1998C170.7 31.9998 169.9 32.5999 169.1 32.4999Z" fill="#5C5C5C"/>
<path fill-rule="evenodd" clip-rule="evenodd" d="M167.4 40.3998C166.6 40.1998 166.1 39.2998 166.3 38.5998C166.5 37.7998 167.3 37.2998 168.1 37.4998C168.9 37.6998 169.4 38.4998 169.2 39.2998C169 40.1998 168.2 40.5998 167.4 40.3998Z" fill="#5C5C5C"/>
<path fill-rule="evenodd" clip-rule="evenodd" d="M164.5 47.8998C163.8 47.4998 163.4 46.6998 163.8 45.8998C164.2 45.1998 165 44.7998 165.8 45.0998C166.6 45.3998 167 46.2998 166.6 47.0998C166.2 47.8998 165.2 48.2998 164.5 47.8998Z" fill="#5C5C5C"/>
<path fill-rule="evenodd" clip-rule="evenodd" d="M160.5 54.8998C160.2 54.6998 160 54.2998 159.9 53.9998C159.8 53.5998 159.9 53.1998 160.1 52.8998C160.5 52.1998 161.4 51.9998 162.1 52.3998C162.8 52.7998 163 53.7998 162.6 54.4998C162.4 54.8998 162 55.0998 161.7 55.1998C161.3 55.1998 160.8 55.1998 160.5 54.8998Z" fill="#5C5C5C"/>
<path fill-rule="evenodd" clip-rule="evenodd" d="M155.4 61.1998C154.8 60.5998 154.8 59.6998 155.3 59.0998C155.8 58.4998 156.8 58.4998 157.4 58.9998C158 59.4998 158.1 60.4998 157.5 61.0998C157 61.6998 156 61.7998 155.4 61.1998Z" fill="#5C5C5C"/>
<path fill-rule="evenodd" clip-rule="evenodd" d="M149.4 66.5999C148.9 65.8999 149 64.9999 149.7 64.4999C150.3 63.9999 151.2 63.9998 151.8 64.6998C152.3 65.2998 152.3 66.2999 151.6 66.8999C150.9 67.3999 149.9 67.1999 149.4 66.5999Z" fill="#5C5C5C"/>
<path fill-rule="evenodd" clip-rule="evenodd" d="M142.7 70.9998C142.3 70.2998 142.5 69.2998 143.2 68.8998C143.9 68.4998 144.8 68.6998 145.3 69.3998C145.7 70.0998 145.5 70.9998 144.8 71.4998C144 71.9998 143.1 71.7998 142.7 70.9998Z" fill="#5C5C5C"/>
<path fill-rule="evenodd" clip-rule="evenodd" d="M135.3 74.2999C135 73.4999 135.4 72.6999 136.2 72.3999C137 72.0999 137.8 72.4999 138.2 73.2999C138.5 74.0999 138.1 74.8999 137.3 75.1999C136.4 75.3999 135.5 74.9999 135.3 74.2999Z" fill="#5C5C5C"/>
<path fill-rule="evenodd" clip-rule="evenodd" d="M127.5 76.3999C127.3 75.5999 127.9 74.8999 128.7 74.6999C129.5 74.4999 130.3 74.9999 130.5 75.7999C130.7 76.5999 130.2 77.3999 129.3 77.5999C128.5 77.7999 127.6 77.1999 127.5 76.3999Z" fill="#5C5C5C"/>
<path fill-rule="evenodd" clip-rule="evenodd" d="M119.5 77.1998C119.5 76.3998 120.1 75.6999 120.9 75.5999C121.7 75.5999 122.4 76.1999 122.5 76.9999C122.6 77.7999 121.9 78.4999 121.1 78.5999C120.2 78.6999 119.5 77.9998 119.5 77.1998Z" fill="#5C5C5C"/>
<path fill-rule="evenodd" clip-rule="evenodd" d="M111.499 68.4999C111.599 67.6999 112.399 67.0999 113.199 67.1999C113.999 67.3999 114.599 67.9999 114.499 68.7999C114.399 69.5999 113.699 70.2999 112.799 70.0999C111.899 70.0999 111.399 69.2999 111.499 68.4999Z" fill="#5C5C5C"/>
<path fill-rule="evenodd" clip-rule="evenodd" d="M103.8 66.6C104.1 65.8 104.9 65.3999 105.7 65.6999C106.5 65.8999 106.9 66.7 106.7 67.5C106.5 68.3 105.6 68.8 104.8 68.6C103.9 68.2 103.5 67.4 103.8 66.6Z" fill="#5C5C5C"/>
<path fill-rule="evenodd" clip-rule="evenodd" d="M96.4996 63.3C96.8996 62.6 97.7996 62.3999 98.4996 62.6999C99.1996 62.9999 99.4996 63.8999 99.0996 64.6999C98.6996 65.3999 97.7996 65.6999 96.9996 65.3999C96.2996 64.9999 96.0996 64 96.4996 63.3Z" fill="#5C5C5C"/>
<path fill-rule="evenodd" clip-rule="evenodd" d="M89.9997 58.6999C90.5997 58.0999 91.3997 58 92.0997 58.5C92.6997 59 92.8997 59.8999 92.3997 60.5999C91.8997 61.2999 90.9997 61.3999 90.2997 60.8999C89.4997 60.2999 89.4997 59.2999 89.9997 58.6999Z" fill="#5C5C5C"/>
<path fill-rule="evenodd" clip-rule="evenodd" d="M84.3999 52.9C84.6999 52.6 85.0999 52.5 85.4999 52.6C85.8999 52.6 86.2999 52.8 86.4999 53.1C86.9999 53.7 86.9999 54.6 86.3999 55.2C85.7999 55.8 84.8 55.7 84.3 55.1C84 54.8 83.8999 54.4 83.8999 54C83.8999 53.6 84.0999 53.2 84.3999 52.9Z" fill="#5C5C5C"/>
<path fill-rule="evenodd" clip-rule="evenodd" d="M79.9998 46.2999C80.6998 45.8999 81.6998 46.1999 82.0998 46.7999C82.4998 47.4999 82.2998 48.3999 81.5998 48.7999C80.8998 49.1999 79.9998 48.9999 79.4998 48.2999C78.9998 47.5999 79.1998 46.6999 79.9998 46.2999Z" fill="#5C5C5C"/>
<path fill-rule="evenodd" clip-rule="evenodd" d="M76.8998 39C77.6998 38.8 78.5998 39.1999 78.7998 39.8999C79.0998 40.5999 78.6998 41.5 77.8998 41.8C77.0998 42.1 76.2998 41.6999 75.9998 40.8999C75.6998 40.0999 76.0998 39.2 76.8998 39Z" fill="#5C5C5C"/>
<path fill-rule="evenodd" clip-rule="evenodd" d="M75.1995 31.1999C75.9995 31.0999 76.7995 31.6999 76.8995 32.3999C76.9995 33.1999 76.4995 33.9999 75.5995 34.0999C74.7995 34.2999 73.9995 33.6999 73.8995 32.8999C73.7995 31.9999 74.3995 31.2999 75.1995 31.1999Z" fill="#5C5C5C"/>
<path fill-rule="evenodd" clip-rule="evenodd" d="M74.9996 23.2C75.7996 23.3 76.4996 23.9 76.3996 24.7C76.2996 25.5 75.6996 26.1 74.8996 26.2C74.0996 26.2 73.3996 25.5 73.3996 24.7C73.3996 23.8 74.0996 23.1 74.9996 23.2Z" fill="#5C5C5C"/>
<path fill-rule="evenodd" clip-rule="evenodd" d="M76.1996 15.3C76.9996 15.5 77.4997 16.3 77.2997 17.1C77.0997 17.9 76.3996 18.4 75.5996 18.3C74.7996 18.2 74.1996 17.4 74.3996 16.5C74.4996 15.6 75.3996 15.1 76.1996 15.3Z" fill="#5C5C5C"/>
<path fill-rule="evenodd" clip-rule="evenodd" d="M78.7999 7.80001C79.5999 8.20001 79.8999 8.99998 79.4999 9.69998C79.1999 10.4 78.3999 10.8 77.5999 10.5C76.7999 10.2 76.3999 9.30003 76.6999 8.50003C77.0999 7.80003 78.0999 7.40001 78.7999 7.80001Z" fill="#5C5C5C"/>
<path fill-rule="evenodd" clip-rule="evenodd" d="M82.8002 0.899945C83.5002 1.39994 83.6001 2.29998 83.2001 2.99998C82.8001 3.69998 81.9001 3.89998 81.2001 3.49998C80.5001 3.09998 80.3001 2.09994 80.7001 1.39994C81.1001 0.499945 82.1002 0.399945 82.8002 0.899945Z" fill="#5C5C5C"/>
<path fill-rule="evenodd" clip-rule="evenodd" d="M156.2 5.29994C155.5 5.69994 154.5 5.39994 154.1 4.79994C153.7 4.09994 153.9 3.19994 154.6 2.79994C155.3 2.39994 156.2 2.59994 156.7 3.29994C157.2 3.99994 157 4.89994 156.2 5.29994Z" fill="#5C5C5C"/>
<path fill-rule="evenodd" clip-rule="evenodd" d="M159.3 12.6999C158.5 12.8999 157.6 12.4999 157.4 11.7999C157.1 11.0999 157.5 10.1999 158.3 9.89989C159.1 9.59989 159.9 9.99992 160.2 10.7999C160.5 11.5999 160.1 12.3999 159.3 12.6999Z" fill="#5C5C5C"/>
<path fill-rule="evenodd" clip-rule="evenodd" d="M161 20.4999C160.2 20.5999 159.4 19.9999 159.3 19.2999C159.2 18.4999 159.7 17.6999 160.6 17.5999C161.4 17.3999 162.2 17.9999 162.3 18.7999C162.4 19.5999 161.8 20.3999 161 20.4999Z" fill="#5C5C5C"/>
<path fill-rule="evenodd" clip-rule="evenodd" d="M161.2 28.5C160.4 28.4 159.7 27.8 159.8 27C159.9 26.2 160.5 25.6 161.3 25.5C162.1 25.5 162.8 26.2 162.8 27C162.8 27.9 162.1 28.5 161.2 28.5Z" fill="#5C5C5C"/>
<path fill-rule="evenodd" clip-rule="evenodd" d="M160 36.2999C159.2 36.0999 158.7 35.2999 158.9 34.4999C159.1 33.6999 159.8 33.1999 160.6 33.2999C161.4 33.3999 162 34.1999 161.8 35.0999C161.6 35.9999 160.8 36.4999 160 36.2999Z" fill="#5C5C5C"/>
<path fill-rule="evenodd" clip-rule="evenodd" d="M157.4 43.8999C156.6 43.4999 156.3 42.6999 156.7 41.9999C157 41.2999 157.8 40.8999 158.6 41.1999C159.4 41.4999 159.8 42.3999 159.5 43.1999C159.1 43.8999 158.1 44.1999 157.4 43.8999Z" fill="#5C5C5C"/>
<path fill-rule="evenodd" clip-rule="evenodd" d="M153.4 50.8C152.7 50.3 152.6 49.4 153 48.7C153.4 48 154.3 47.8 155 48.2C155.7 48.6 155.9 49.6 155.5 50.3C155.1 51.1 154 51.2 153.4 50.8Z" fill="#5C5C5C"/>
<path fill-rule="evenodd" clip-rule="evenodd" d="M148.2 56.7999C147.6 56.1999 147.7 55.2999 148.2 54.6999C148.7 54.0999 149.7 54.0999 150.3 54.5999C150.9 55.0999 151 56.0999 150.4 56.6999C149.8 57.4999 148.8 57.3999 148.2 56.7999Z" fill="#5C5C5C"/>
<path fill-rule="evenodd" clip-rule="evenodd" d="M142 61.8998C141.6 61.1998 141.7 60.2999 142.3 59.7999C142.9 59.2999 143.9 59.4999 144.4 60.0999C144.9 60.7999 144.8 61.6998 144.1 62.1998C143.4 62.6998 142.5 62.5998 142 61.8998Z" fill="#5C5C5C"/>
<path fill-rule="evenodd" clip-rule="evenodd" d="M135 65.6999C134.7 64.8999 135 63.9999 135.7 63.6999C136.4 63.3999 137.3 63.7 137.7 64.4C138.1 65.1 137.8 66 137 66.4C136.2 66.7 135.3 66.3999 135 65.6999Z" fill="#5C5C5C"/>
<path fill-rule="evenodd" clip-rule="evenodd" d="M127.4 68.0998C127.2 67.2998 127.7 66.4998 128.5 66.2998C129.3 66.0998 130.1 66.5998 130.3 67.3998C130.5 68.1998 130.1 68.9998 129.2 69.1998C128.4 69.3998 127.5 68.8998 127.4 68.0998Z" fill="#5C5C5C"/>
<path fill-rule="evenodd" clip-rule="evenodd" d="M119.4 68.9999C119.4 68.1999 120 67.4999 120.8 67.3999C121.6 67.3999 122.3 67.9999 122.4 68.7999C122.5 69.5999 121.9 70.2999 121 70.3999C120.2 70.4999 119.5 69.7999 119.4 68.9999Z" fill="#5C5C5C"/>
<path fill-rule="evenodd" clip-rule="evenodd" d="M111.6 60.2999C111.8 59.4999 112.5 58.8999 113.3 58.9999C114.1 59.0999 114.6 59.8999 114.5 60.6999C114.4 61.4999 113.7 62.0999 112.8 61.9999C112 61.7999 111.4 61.0999 111.6 60.2999Z" fill="#5C5C5C"/>
<path fill-rule="evenodd" clip-rule="evenodd" d="M104.1 57.9999C104.3 57.5999 104.6 57.3998 104.9 57.1998C105.2 56.9998 105.6 56.9999 106 57.0999C106.7 57.3999 107.1 58.1999 106.8 58.9999C106.5 59.7999 105.7 60.1999 104.9 59.8999C104.5 59.7999 104.2 59.4999 104 59.0999C103.9 58.7999 103.9 58.2999 104.1 57.9999Z" fill="#5C5C5C"/>
<path fill-rule="evenodd" clip-rule="evenodd" d="M97.3001 53.9999C97.8001 53.2999 98.7001 53.1999 99.3001 53.5999C100 53.9999 100.1 54.8999 99.7001 55.5999C99.3001 56.2999 98.3001 56.4999 97.6001 56.0999C97.0001 55.5999 96.8001 54.6999 97.3001 53.9999Z" fill="#5C5C5C"/>
<path fill-rule="evenodd" clip-rule="evenodd" d="M91.5 48.6998C92.1 48.1998 93.1 48.1998 93.6 48.7998C94.1 49.3998 94.1 50.2998 93.5 50.8998C92.9 51.4998 92 51.4998 91.4 50.8998C90.9 50.1998 90.9 49.1998 91.5 48.6998Z" fill="#5C5C5C"/>
<path fill-rule="evenodd" clip-rule="evenodd" d="M87.0998 42.1998C87.7998 41.7998 88.6998 42.0998 89.0998 42.6998C89.4998 43.3998 89.2998 44.2998 88.5998 44.6998C87.8998 45.1998 86.9998 44.8998 86.4998 44.1998C86.0998 43.4998 86.3998 42.5998 87.0998 42.1998Z" fill="#5C5C5C"/>
<path fill-rule="evenodd" clip-rule="evenodd" d="M84.3001 34.8998C85.1001 34.6998 85.9001 35.0998 86.1001 35.8998C86.4001 36.5998 86.0001 37.3998 85.2001 37.6998C84.4001 37.9998 83.6001 37.5999 83.3001 36.7999C83.0001 35.9999 83.5001 35.0998 84.3001 34.8998Z" fill="#5C5C5C"/>
<path fill-rule="evenodd" clip-rule="evenodd" d="M83.1002 27.1998C83.9002 27.1998 84.6002 27.7999 84.7002 28.5999C84.7002 29.3999 84.2002 30.0998 83.3002 30.1998C82.5002 30.2998 81.7002 29.6998 81.7002 28.8998C81.6002 27.8998 82.3002 27.1998 83.1002 27.1998Z" fill="#5C5C5C"/>
<path fill-rule="evenodd" clip-rule="evenodd" d="M83.6002 19.2998C84.4002 19.4998 85.0002 20.1998 84.9002 20.9998C84.8002 21.7998 84.0002 22.2998 83.2002 22.1998C82.4002 22.0998 81.8002 21.3998 81.9002 20.4998C82.1002 19.6998 82.8002 19.1998 83.6002 19.2998Z" fill="#5C5C5C"/>
<path fill-rule="evenodd" clip-rule="evenodd" d="M85.9 11.7999C86.3 11.9999 86.5 12.2999 86.7 12.5999C86.9 12.8999 86.9001 13.2999 86.8001 13.6999C86.5001 14.3999 85.7 14.7999 84.9 14.4999C84.1 14.1999 83.7 13.3999 84 12.5999C84.1 12.1999 84.4001 11.8999 84.8001 11.6999C85.1001 11.5999 85.6 11.6999 85.9 11.7999Z" fill="#5C5C5C"/>
<path fill-rule="evenodd" clip-rule="evenodd" d="M89.9002 4.99982C90.6002 5.49982 90.7002 6.39982 90.3002 6.99982C89.9002 7.69982 89.0002 7.79978 88.3002 7.39978C87.6002 6.99978 87.4003 5.99981 87.8003 5.29981C88.3003 4.69981 89.2002 4.49982 89.9002 4.99982Z" fill="#5C5C5C"/>
<path fill-rule="evenodd" clip-rule="evenodd" d="M95.2001 -0.700162C95.7001 -0.100162 95.7001 0.899813 95.1001 1.39981C94.5001 1.89981 93.6001 1.89984 93.0001 1.29984C92.4001 0.699838 92.4001 -0.200199 93.0001 -0.800199C93.7001 -1.4002 94.7001 -1.40016 95.2001 -0.700162Z" fill="#5C5C5C"/>
<path fill-rule="evenodd" clip-rule="evenodd" d="M144.6 2.89977C144 3.39977 143 3.39979 142.5 2.79979C142 2.19979 142 1.29976 142.6 0.699756C143.2 0.0997558 144.1 0.0997558 144.7 0.699756C145.3 1.49976 145.3 2.39977 144.6 2.89977Z" fill="#5C5C5C"/>
<path fill-rule="evenodd" clip-rule="evenodd" d="M149.1 9.39978C148.4 9.79978 147.5 9.49978 147.1 8.89978C146.7 8.19978 146.9 7.29978 147.6 6.89978C148.3 6.39978 149.2 6.69978 149.7 7.39978C150.1 8.09978 149.8 8.99978 149.1 9.39978Z" fill="#5C5C5C"/>
<path fill-rule="evenodd" clip-rule="evenodd" d="M151.9 16.6999C151.1 16.8999 150.3 16.4999 150.1 15.6999C149.8 14.9999 150.2 14.1999 151 13.8999C151.8 13.5999 152.6 13.9999 152.9 14.7999C153.2 15.6999 152.7 16.4999 151.9 16.6999Z" fill="#5C5C5C"/>
<path fill-rule="evenodd" clip-rule="evenodd" d="M153.1 24.4999C152.3 24.4999 151.6 23.8999 151.5 23.0999C151.5 22.2999 152 21.5999 152.9 21.4999C153.7 21.3999 154.5 21.9999 154.5 22.7999C154.6 23.6999 153.9 24.4999 153.1 24.4999Z" fill="#5C5C5C"/>
<path fill-rule="evenodd" clip-rule="evenodd" d="M152.5 32.2998C151.7 32.0998 151.1 31.3998 151.2 30.5998C151.3 29.7998 152.1 29.2998 152.9 29.3998C153.7 29.4998 154.3 30.1998 154.2 31.0998C154.1 31.8998 153.4 32.4998 152.5 32.2998Z" fill="#5C5C5C"/>
<path fill-rule="evenodd" clip-rule="evenodd" d="M150.2 39.7998C149.8 39.5998 149.6 39.2998 149.4 38.9998C149.2 38.6998 149.2 38.2998 149.3 37.8998C149.6 37.1998 150.4 36.7998 151.2 37.0998C152 37.3998 152.4 38.1998 152.1 38.9998C152 39.3998 151.7 39.6998 151.3 39.8998C151 39.9998 150.6 39.9998 150.2 39.7998Z" fill="#5C5C5C"/>
<path fill-rule="evenodd" clip-rule="evenodd" d="M146.3 46.5999C145.6 46.0999 145.5 45.1999 145.9 44.5999C146.3 43.8999 147.2 43.7999 147.9 44.1999C148.6 44.5999 148.8 45.5999 148.4 46.2999C147.9 46.8999 147 47.0999 146.3 46.5999Z" fill="#5C5C5C"/>
<path fill-rule="evenodd" clip-rule="evenodd" d="M141 52.3999C140.5 51.7999 140.5 50.7999 141.1 50.2999C141.7 49.7999 142.6 49.7999 143.2 50.3999C143.8 50.9999 143.8 51.8999 143.2 52.4999C142.5 52.9999 141.5 52.9999 141 52.3999Z" fill="#5C5C5C"/>
<path fill-rule="evenodd" clip-rule="evenodd" d="M134.5 56.7998C134.1 56.0998 134.4 55.1998 135 54.7998C135.7 54.3998 136.6 54.5998 137 55.2998C137.5 55.9998 137.2 56.8998 136.5 57.3998C135.8 57.7998 134.9 57.5998 134.5 56.7998Z" fill="#5C5C5C"/>
<path fill-rule="evenodd" clip-rule="evenodd" d="M127.2 59.6999C127 58.8999 127.4 58.0999 128.2 57.8999C128.9 57.5999 129.7 57.9999 130 58.7999C130.3 59.5999 129.9 60.3999 129.1 60.6999C128.2 60.8999 127.4 60.4999 127.2 59.6999Z" fill="#5C5C5C"/>
<path fill-rule="evenodd" clip-rule="evenodd" d="M119.4 60.7999C119.4 59.9999 120 59.2998 120.8 59.1998C121.6 59.1998 122.3 59.6999 122.4 60.5999C122.5 61.3999 121.9 62.1998 121.1 62.1998C120.2 62.2998 119.5 61.6999 119.4 60.7999Z" fill="#5C5C5C"/>
<path fill-rule="evenodd" clip-rule="evenodd" d="M111.5 51.8998C111.7 51.0998 112.5 50.5998 113.3 50.7998C114.1 50.8998 114.6 51.6999 114.5 52.4999C114.4 53.2999 113.6 53.8998 112.7 53.6998C111.8 53.4998 111.3 52.5998 111.5 51.8998Z" fill="#5C5C5C"/>
<path fill-rule="evenodd" clip-rule="evenodd" d="M104.1 48.6999C104.5 47.9999 105.4 47.8 106.1 48.1C106.8 48.4 107.1 49.3 106.7 50.1C106.4 50.9 105.4 51.2 104.6 50.8C103.9 50.4 103.7 49.3999 104.1 48.6999Z" fill="#5C5C5C"/>
<path fill-rule="evenodd" clip-rule="evenodd" d="M98.0003 43.5999C98.6003 43.0999 99.6003 43.0999 100.1 43.6999C100.7 44.1999 100.7 45.1999 100.1 45.7999C99.6003 46.3999 98.6003 46.3999 97.9003 45.7999C97.3003 45.0999 97.3003 44.0999 98.0003 43.5999Z" fill="#5C5C5C"/>
<path fill-rule="evenodd" clip-rule="evenodd" d="M93.5999 36.8999C94.3999 36.5999 95.1999 36.8999 95.5999 37.5999C95.8999 38.2999 95.6999 39.1999 94.9999 39.5999C94.2999 39.9999 93.2999 39.7999 92.8999 38.9999C92.5999 38.0999 92.8999 37.1999 93.5999 36.8999Z" fill="#5C5C5C"/>
<path fill-rule="evenodd" clip-rule="evenodd" d="M91.3997 29.1999C92.1997 29.0999 92.9997 29.6999 93.0997 30.3999C93.1997 31.1999 92.7997 31.8999 91.8997 32.0999C91.0997 32.2999 90.1997 31.7999 90.0997 30.8999C90.0997 30.0999 90.5997 29.2999 91.3997 29.1999Z" fill="#5C5C5C"/>
<path fill-rule="evenodd" clip-rule="evenodd" d="M91.6002 21.1999C92.4002 21.3999 93.0002 22.0999 92.9002 22.8999C92.8002 23.6999 92.1002 24.2999 91.3002 24.1999C90.5002 24.1999 89.8002 23.4 89.9002 22.5C90.0002 21.6 90.8002 20.9999 91.6002 21.1999Z" fill="#5C5C5C"/>
<path fill-rule="evenodd" clip-rule="evenodd" d="M94.2002 13.5999C94.9002 13.9999 95.3002 14.8999 94.9002 15.5999C94.6002 16.2999 93.8002 16.6999 93.0002 16.3999C92.2002 16.0999 91.8002 15.1999 92.2002 14.3999C92.5002 13.4999 93.4002 13.1999 94.2002 13.5999Z" fill="#5C5C5C"/>
<path fill-rule="evenodd" clip-rule="evenodd" d="M98.7998 7.09992C99.3998 7.69992 99.3998 8.5999 98.8998 9.1999C98.3998 9.7999 97.4998 9.89991 96.7998 9.39991C96.1998 8.89991 95.9998 7.89994 96.5998 7.29994C97.2998 6.49994 98.2998 6.49992 98.7998 7.09992Z" fill="#5C5C5C"/>
<path fill-rule="evenodd" clip-rule="evenodd" d="M105.2 2.19982C105.6 2.89982 105.4 3.89985 104.7 4.29985C104.4 4.49985 104 4.49986 103.6 4.49986C103.2 4.39986 102.9 4.19983 102.7 3.89983C102.5 3.59983 102.4 3.19985 102.5 2.79985C102.6 2.39985 102.8 2.09985 103.2 1.79985C103.9 1.29985 104.8 1.49982 105.2 2.19982Z" fill="#5C5C5C"/>
<path fill-rule="evenodd" clip-rule="evenodd" d="M112.7 -0.500076C112.9 0.299924 112.4 1.09991 111.6 1.29991C110.8 1.49991 110 0.999875 109.8 0.199875C109.5 -0.600125 110 -1.40009 110.9 -1.70009C111.8 -1.80009 112.6 -1.40008 112.7 -0.500076Z" fill="#5C5C5C"/>
<path fill-rule="evenodd" clip-rule="evenodd" d="M120.7 -0.900024C120.6 -0.100024 119.9 0.6 119.1 0.5C118.7 0.5 118.4 0.3 118.1 -1.14122e-07C117.8 -0.3 117.7 -0.6 117.7 -1C117.7 -1.4 117.9 -1.80004 118.1 -2.10004C118.4 -2.40004 118.8 -2.5 119.2 -2.5C120.2 -2.5 120.8 -1.80002 120.7 -0.900024Z" fill="#5C5C5C"/>
<path fill-rule="evenodd" clip-rule="evenodd" d="M128.5 0.999976C128.2 1.79998 127.3 2.19994 126.6 1.89994C126.2 1.79994 126 1.49995 125.8 1.09995C125.6 0.799951 125.6 0.399975 125.7 -2.45647e-05C125.8 -0.400025 126.1 -0.700049 126.4 -0.900049C126.7 -1.10005 127.2 -1.10005 127.6 -0.900049C128.4 -0.600049 128.8 0.299976 128.5 0.999976Z" fill="#5C5C5C"/>
<path fill-rule="evenodd" clip-rule="evenodd" d="M135.4 5.19988C134.9 5.79988 133.9 5.89993 133.3 5.49993C132.7 4.99993 132.5 4.09989 133 3.39989C133.5 2.69989 134.4 2.4999 135.1 3.0999C135.8 3.5999 135.9 4.59988 135.4 5.19988Z" fill="#5C5C5C"/>
<path fill-rule="evenodd" clip-rule="evenodd" d="M140.7 11.1998C140.4 11.3998 140 11.4998 139.6 11.3998C139.2 11.2998 138.9 11.1998 138.6 10.7998C138.1 10.1998 138.3 9.19981 138.9 8.69981C139.5 8.19981 140.5 8.29986 141 8.99986C141.3 9.39986 141.4 9.79981 141.3 10.1998C141.2 10.5998 141 10.9998 140.7 11.1998Z" fill="#5C5C5C"/>
<path fill-rule="evenodd" clip-rule="evenodd" d="M144 18.5C143.2 18.7 142.4 18.3 142.1 17.6C141.8 16.9 142.2 15.9999 143 15.6999C143.8 15.3999 144.6 15.8 144.9 16.6C145.3 17.4 144.7 18.3 144 18.5Z" fill="#5C5C5C"/>
<path fill-rule="evenodd" clip-rule="evenodd" d="M144.9 26.5001C144.1 26.5001 143.5 25.8001 143.4 25.0001C143.4 24.2001 144 23.5 144.8 23.4C145.6 23.3 146.3 24 146.4 24.9C146.5 25.8 145.8 26.5001 144.9 26.5001Z" fill="#5C5C5C"/>
<path fill-rule="evenodd" clip-rule="evenodd" d="M143.6 34.3999C142.8 34.0999 142.4 33.2999 142.6 32.5999C142.8 31.7999 143.6 31.4 144.4 31.5C145.2 31.7 145.7 32.4999 145.5 33.3999C145.3 34.1999 144.4 34.5999 143.6 34.3999Z" fill="#5C5C5C"/>
<path fill-rule="evenodd" clip-rule="evenodd" d="M139.9 41.4999C139.2 40.9999 139.1 40.0999 139.5 39.3999C139.9 38.6999 140.8 38.4999 141.5 38.8999C142.2 39.2999 142.4 40.1999 142 40.9999C141.6 41.7999 140.6 41.9999 139.9 41.4999Z" fill="#5C5C5C"/>
<path fill-rule="evenodd" clip-rule="evenodd" d="M134.3 47.1999C133.8 46.4999 133.9 45.5999 134.5 45.0999C135.1 44.5999 136 44.5999 136.6 45.1999C137.2 45.7999 137.1 46.7999 136.5 47.3999C135.8 47.9999 134.8 47.8999 134.3 47.1999Z" fill="#5C5C5C"/>
<path fill-rule="evenodd" clip-rule="evenodd" d="M127.3 51.1C127 50.3 127.4 49.4999 128.1 49.1999C128.8 48.8999 129.7 49.2 130.1 49.9C130.5 50.6 130.1 51.5 129.3 51.9C128.5 52.2 127.6 51.8 127.3 51.1Z" fill="#5C5C5C"/>
<path fill-rule="evenodd" clip-rule="evenodd" d="M119.5 52.5999C119.5 51.7999 120.1 51.0999 120.8 50.9999C121.6 50.8999 122.3 51.4999 122.4 52.2999C122.5 53.0999 121.9 53.8999 121.1 53.9999C120.2 54.0999 119.5 53.4999 119.5 52.5999Z" fill="#5C5C5C"/>
<path fill-rule="evenodd" clip-rule="evenodd" d="M111.7 43.4C112 42.6 112.8 42.2 113.5 42.4C114.2 42.6 114.7 43.4 114.5 44.2C114.4 45 113.5 45.5 112.7 45.3C111.9 45.1 111.4 44.1 111.7 43.4Z" fill="#5C5C5C"/>
<path fill-rule="evenodd" clip-rule="evenodd" d="M105.1 39.2999C105.7 38.6999 106.6 38.5999 107.1 39.0999C107.7 39.4999 107.8 40.4999 107.3 41.0999C106.8 41.7999 105.9 41.8999 105.2 41.3999C104.6 40.7999 104.5 39.8999 105.1 39.2999Z" fill="#5C5C5C"/>
<path fill-rule="evenodd" clip-rule="evenodd" d="M100.8 32.7999C101.6 32.4999 102.4 32.7999 102.8 33.4999C103.1 34.1999 102.9 34.9999 102.2 35.4999C101.5 35.8999 100.5 35.6999 100.1 34.8999C99.6001 34.0999 100 33.0999 100.8 32.7999Z" fill="#5C5C5C"/>
<path fill-rule="evenodd" clip-rule="evenodd" d="M99.3999 25.2C100.2 25.2 100.8 25.9 100.9 26.6C100.9 27 100.8 27.3 100.5 27.6C100.3 27.9 99.8999 28.1 99.4999 28.1C99.0999 28.2 98.6999 28 98.3999 27.8C98.0999 27.5 97.8999 27.2 97.8999 26.7C97.8999 25.8 98.5999 25.2 99.3999 25.2Z" fill="#5C5C5C"/>
<path fill-rule="evenodd" clip-rule="evenodd" d="M101.3 17.6999C102.1 18.0999 102.3 18.9 102.1 19.6C101.9 20.3 101 20.7 100.2 20.4C99.4002 20.2 99.0002 19.3 99.3002 18.5C99.6002 17.6 100.6 17.2999 101.3 17.6999Z" fill="#5C5C5C"/>
<path fill-rule="evenodd" clip-rule="evenodd" d="M106.1 11.4999C106.6 12.0999 106.6 13.0999 106.1 13.5999C105.6 14.0999 104.7 14.0999 104 13.5999C103.4 13.0999 103.3 12.0999 103.9 11.4999C104.6 10.7999 105.5 10.8999 106.1 11.4999Z" fill="#5C5C5C"/>
<path fill-rule="evenodd" clip-rule="evenodd" d="M112.9 7.89989C113 8.29989 113 8.69993 112.8 8.99993C112.6 9.29993 112.4 9.59988 112 9.69988C111.3 9.89988 110.5 9.59989 110.1 8.89989C109.7 8.19989 110.1 7.19989 110.9 6.89989C111.3 6.69989 111.7 6.79989 112.1 6.89989C112.5 7.09989 112.8 7.49989 112.9 7.89989Z" fill="#5C5C5C"/>
<path fill-rule="evenodd" clip-rule="evenodd" d="M120.7 7.29999C120.6 8.09999 119.9 8.69995 119.2 8.69995C118.8 8.69995 118.5 8.49995 118.2 8.19995C118 7.89995 117.8 7.59995 117.8 7.19995C117.8 6.39995 118.5 5.69995 119.4 5.69995C120.2 5.69995 120.8 6.49999 120.7 7.29999Z" fill="#5C5C5C"/>
<path fill-rule="evenodd" clip-rule="evenodd" d="M128 9.99995C127.5 10.6999 126.7 10.8999 126 10.5999C125.3 10.2999 125.1 9.39992 125.4 8.59992C125.7 7.79992 126.6 7.49991 127.4 7.89991C128.2 8.29991 128.4 9.29995 128 9.99995Z" fill="#5C5C5C"/>
<path fill-rule="evenodd" clip-rule="evenodd" d="M133.6 15.2999C132.9 15.7999 132 15.6999 131.5 15.0999C131 14.4999 131.1 13.5999 131.7 13.0999C132.3 12.4999 133.3 12.5999 133.8 13.2999C134.4 13.8999 134.3 14.8999 133.6 15.2999Z" fill="#5C5C5C"/>
<path fill-rule="evenodd" clip-rule="evenodd" d="M136.5 22.4999C136.1 22.5999 135.7 22.4999 135.4 22.2999C135.1 22.0999 134.8 21.7999 134.7 21.4999C134.5 20.7999 135 19.9998 135.7 19.6998C136.5 19.3998 137.4 19.8998 137.6 20.6998C137.7 21.0998 137.7 21.4998 137.4 21.8998C137.2 22.1998 136.9 22.4999 136.5 22.4999Z" fill="#5C5C5C"/>
<path fill-rule="evenodd" clip-rule="evenodd" d="M136.2 30.3C135.4 30.1 134.9 29.4 135 28.6C135.1 27.9 135.9 27.3 136.7 27.4C137.5 27.5 138.1 28.2 138 29.1C137.9 30 137 30.5 136.2 30.3Z" fill="#5C5C5C"/>
<path fill-rule="evenodd" clip-rule="evenodd" d="M132.8 37.3C132.1 36.8 132 35.9 132.4 35.3C132.8 34.7 133.7 34.5 134.4 34.9C135.1 35.3 135.4 36.2 134.9 37C134.4 37.7 133.5 37.8 132.8 37.3Z" fill="#5C5C5C"/>
<path fill-rule="evenodd" clip-rule="evenodd" d="M126.9 42.2999C126.5 41.5999 126.7 40.6999 127.4 40.2999C128 39.8999 128.9 40.0999 129.4 40.6999C129.9 41.2999 129.8 42.3999 129 42.7999C128.2 43.2999 127.3 43.0999 126.9 42.2999Z" fill="#5C5C5C"/>
<path fill-rule="evenodd" clip-rule="evenodd" d="M119.401 44.3999C119.401 43.5999 119.901 42.8999 120.601 42.7999C121.001 42.6999 121.301 42.8999 121.601 43.0999C121.901 43.2999 122.101 43.5999 122.201 43.9999C122.301 44.3999 122.201 44.7999 122.001 45.0999C121.801 45.3999 121.401 45.5999 121.001 45.6999C120.201 45.8999 119.501 45.2999 119.401 44.3999Z" fill="#5C5C5C"/>
<path fill-rule="evenodd" clip-rule="evenodd" d="M111.7 34.1998C112.2 33.5998 113.1 33.3998 113.7 33.6998C114 33.8998 114.2 34.1999 114.4 34.4999C114.5 34.7999 114.6 35.1999 114.4 35.5999C114.3 35.9999 114 36.2999 113.6 36.3999C113.2 36.4999 112.7 36.4999 112.3 36.2999C111.4 35.7999 111.2 34.7998 111.7 34.1998Z" fill="#5C5C5C"/>
<path fill-rule="evenodd" clip-rule="evenodd" d="M107.7 27.1998C108.5 27.0998 109.3 27.5998 109.5 28.2998C109.7 28.9998 109.3 29.7998 108.6 30.1998C107.8 30.5998 106.9 30.0998 106.6 29.1998C106.3 28.1998 106.9 27.2998 107.7 27.1998Z" fill="#5C5C5C"/>
<path fill-rule="evenodd" clip-rule="evenodd" d="M109.7 19.3998C110.3 19.8998 110.5 20.7998 110.2 21.3998C110 21.6998 109.7 21.8998 109.4 22.0998C109.1 22.1998 108.7 22.2998 108.3 22.0998C107.9 21.9998 107.6 21.6998 107.5 21.2998C107.4 20.8998 107.4 20.3998 107.6 19.9998C108.1 19.0998 109.1 18.8998 109.7 19.3998Z" fill="#5C5C5C"/>
<path fill-rule="evenodd" clip-rule="evenodd" d="M116.7 15.3999C116.8 16.1999 116.3 16.9999 115.6 17.1999C114.9 17.3999 114.1 16.9999 113.7 16.2999C113.3 15.4999 113.8 14.5999 114.7 14.2999C115.7 13.9999 116.6 14.5999 116.7 15.3999Z" fill="#5C5C5C"/>
<path fill-rule="evenodd" clip-rule="evenodd" d="M124.5 17.4998C124 18.0998 123.1 18.2998 122.5 17.9998C122.2 17.7998 122 17.4998 121.8 17.1998C121.7 16.8998 121.6 16.4998 121.8 16.0998C121.9 15.6998 122.2 15.3998 122.6 15.2998C123 15.1998 123.5 15.1998 123.9 15.3998C124.8 15.7998 125 16.7998 124.5 17.4998Z" fill="#5C5C5C"/>
<path fill-rule="evenodd" clip-rule="evenodd" d="M128.5 24.3999C127.7 24.4999 126.9 23.9999 126.7 23.2999C126.5 22.5999 126.9 21.7999 127.6 21.3999C128.4 20.9999 129.3 21.4999 129.6 22.3999C129.9 23.4999 129.3 24.2999 128.5 24.3999Z" fill="#5C5C5C"/>
<path fill-rule="evenodd" clip-rule="evenodd" d="M126.4 32.1998C125.8 31.6998 125.6 30.7998 125.9 30.1998C126.1 29.8998 126.4 29.6999 126.7 29.4999C127 29.3999 127.4 29.2999 127.8 29.4999C128.2 29.5999 128.5 29.8999 128.6 30.2999C128.7 30.6999 128.7 31.1998 128.5 31.5998C128.1 32.4998 127.1 32.6998 126.4 32.1998Z" fill="#5C5C5C"/>
<path fill-rule="evenodd" clip-rule="evenodd" d="M119.5 36.1999C119.4 35.3999 119.9 34.5999 120.6 34.3999C121.3 34.1999 122.1 34.5999 122.5 35.2999C122.9 36.0999 122.4 36.9999 121.5 37.2999C120.5 37.5999 119.6 36.9999 119.5 36.1999Z" fill="#5C5C5C"/>
<path d="M166.2 32.8997C166.2 57.0898 185.81 76.6997 210 76.6997C234.19 76.6997 253.8 57.0898 253.8 32.8997C253.8 8.70965 234.19 -10.9003 210 -10.9003C185.81 -10.9003 166.2 8.70964 166.2 32.8997Z" fill="#F03E30"/>
<path d="M303.6 146.4C303.6 200.8 347.7 244.9 402.1 244.9C456.5 244.9 500.6 200.8 500.6 146.4C500.6 92.0001 456.5 47.9001 402.1 47.9001C347.7 47.9001 303.6 92.0001 303.6 146.4Z" stroke="#434343" stroke-width="0.7039" stroke-miterlimit="10"/>
<path d="M310.699 146.4C310.699 196.879 351.621 237.8 402.1 237.8C452.578 237.8 493.5 196.879 493.5 146.4C493.5 95.9213 452.578 55.0001 402.1 55.0001C351.621 55.0001 310.699 95.9213 310.699 146.4Z" stroke="#434343" stroke-width="0.688" stroke-miterlimit="10"/>
<path d="M317.799 146.4C317.799 192.958 355.542 230.7 402.099 230.7C448.657 230.7 486.399 192.958 486.399 146.4C486.399 99.8425 448.657 62.1001 402.099 62.1001C355.542 62.1001 317.799 99.8425 317.799 146.4Z" stroke="#434343" stroke-width="0.6722" stroke-miterlimit="10"/>
<path d="M324.9 146.4C324.9 189.036 359.463 223.6 402.1 223.6C444.736 223.6 479.3 189.036 479.3 146.4C479.3 103.764 444.736 69.2001 402.1 69.2001C359.463 69.2001 324.9 103.764 324.9 146.4Z" stroke="#434343" stroke-width="0.6564" stroke-miterlimit="10"/>
<path d="M332 146.4C332 185.115 363.385 216.5 402.1 216.5C440.815 216.5 472.2 185.115 472.2 146.4C472.2 107.685 440.815 76.3002 402.1 76.3002C363.385 76.3002 332 107.685 332 146.4Z" stroke="#434343" stroke-width="0.6406" stroke-miterlimit="10"/>
<path d="M339.199 146.4C339.199 181.139 367.361 209.3 402.099 209.3C436.838 209.3 465 181.139 465 146.4C465 111.661 436.838 83.5001 402.1 83.5001C367.361 83.5001 339.199 111.661 339.199 146.4Z" stroke="#434343" stroke-width="0.6247" stroke-miterlimit="10"/>
<path d="M399.251 202.057C430.028 203.639 456.26 179.971 457.842 149.193C459.423 118.416 435.755 92.1839 404.978 90.6024C374.201 89.0209 347.968 112.689 346.387 143.466C344.805 174.244 368.473 200.476 399.251 202.057Z" stroke="#434343" stroke-width="0.6089" stroke-miterlimit="10"/>
<path d="M400.284 194.99C427.162 195.989 449.76 175.011 450.76 148.134C451.759 121.256 430.781 98.6576 403.904 97.6581C377.026 96.6586 354.428 117.637 353.428 144.514C352.428 171.392 373.407 193.99 400.284 194.99Z" stroke="#434343" stroke-width="0.5931" stroke-miterlimit="10"/>
<path d="M400.955 187.901C423.921 188.516 443.037 170.398 443.653 147.432C444.269 124.466 426.15 105.35 403.184 104.734C380.219 104.118 361.102 122.237 360.486 145.202C359.87 168.168 377.989 187.285 400.955 187.901Z" stroke="#434343" stroke-width="0.5773" stroke-miterlimit="10"/>
<path d="M401.432 180.814C420.482 181.174 436.217 166.023 436.577 146.973C436.937 127.923 421.786 112.188 402.736 111.828C383.686 111.468 367.951 126.619 367.591 145.669C367.231 164.719 382.382 180.454 401.432 180.814Z" stroke="#434343" stroke-width="0.5615" stroke-miterlimit="10"/>
<path d="M401.739 173.618C416.815 173.809 429.191 161.742 429.382 146.667C429.573 131.591 417.506 119.215 402.431 119.024C387.355 118.833 374.979 130.899 374.788 145.975C374.597 161.051 386.663 173.427 401.739 173.618Z" stroke="#434343" stroke-width="0.5456" stroke-miterlimit="10"/>
<path d="M401.967 166.53C413.124 166.616 422.236 157.641 422.322 146.485C422.407 135.328 413.432 126.216 402.276 126.13C391.12 126.045 382.007 135.02 381.922 146.176C381.836 157.332 390.811 166.445 401.967 166.53Z" stroke="#434343" stroke-width="0.5298" stroke-miterlimit="10"/>
<path d="M402.059 159.426C409.294 159.451 415.179 153.606 415.204 146.371C415.229 139.136 409.385 133.251 402.15 133.226C394.915 133.2 389.029 139.045 389.004 146.28C388.979 153.515 394.824 159.4 402.059 159.426Z" stroke="#434343" stroke-width="0.514" stroke-miterlimit="10"/>
<path d="M402.1 140.4C405.4 140.4 408.1 143.1 408.1 146.4C408.1 149.7 405.4 152.4 402.1 152.4C398.8 152.4 396.1 149.7 396.1 146.4C396.1 143.1 398.8 140.4 402.1 140.4Z" stroke="#434343" stroke-width="0.4982" stroke-miterlimit="10"/>
<path d="M500.5 146.1C500.5 91.6001 456.4 47.5001 402 47.5001L402 146.1L500.5 146.1Z" fill="#434343"/>
<path d="M302 48.6993C302 103.099 258.4 146.199 204 146.199L204.4 146.199L301.9 146.199L301.9 48.6993L302 48.6993Z" fill="#434343" stroke="#434343" stroke-miterlimit="10"/>
<path d="M104 48.3994L104 146.199L202.6 146.199L202.6 146.499C202.6 92.0994 159 48.3994 104 48.3994Z" fill="#434343" stroke="#434343" stroke-miterlimit="10"/>
<path d="M96.2998 147.2C41.8998 147.2 -0.000216001 102.5 -0.000213623 48.0996L-0.000213641 48.4996L-0.00021795 147.1L96.2998 147.1L96.2998 147.2Z" fill="#434343" stroke="#434343" stroke-miterlimit="10"/>
</g>
</g>
<defs>
<clipPath id="clip0_642_21817">
<rect width="501" height="148" fill="white"/>
</clipPath>
</defs>
</svg>
