<svg width="250" height="151" viewBox="0 0 250 151" fill="none" xmlns="http://www.w3.org/2000/svg">
<path d="M132.288 100.071L165.296 113.319L206.144 11.607L178.256 0.406988C175.44 -0.729011 172.24 0.646984 171.104 3.46298L132.288 100.071Z" fill="#F7D09E"/>
<path d="M128.424 96.2856L191.611 107.491L207.364 18.6563L144.177 7.45114L128.424 96.2856Z" fill="#D3E5EA"/>
<path d="M160.028 20.0113L188.243 25.0146L188.355 24.3845L160.14 19.3812L160.028 20.0113Z" fill="#A7B8CE"/>
<path d="M154.372 17.345L194.449 24.4519L194.561 23.8218L154.484 16.7148L154.372 17.345Z" fill="#A7B8CE"/>
<path d="M148.646 24.8497L197.262 33.4707L197.373 32.8406L148.758 24.2195L148.646 24.8497Z" fill="#A7B8CE"/>
<path d="M148.112 27.8882L196.728 36.5093L196.839 35.8791L148.224 27.2581L148.112 27.8882Z" fill="#A7B8CE"/>
<path d="M147.021 33.9939L195.637 42.615L195.748 41.9848L147.133 33.3638L147.021 33.9939Z" fill="#A7B8CE"/>
<path d="M146.487 37.0325L195.103 45.6536L195.214 45.0234L146.599 36.4024L146.487 37.0325Z" fill="#A7B8CE"/>
<path d="M145.95 40.0867L194.565 48.7078L194.677 48.0776L146.062 39.4566L145.95 40.0867Z" fill="#A7B8CE"/>
<path d="M143.568 53.48L192.184 62.1011L192.295 61.4709L143.68 52.8499L143.568 53.48Z" fill="#A7B8CE"/>
<path d="M143.007 56.647L191.622 65.2681L191.734 64.6379L143.118 56.0169L143.007 56.647Z" fill="#A7B8CE"/>
<path d="M142.449 59.7974L191.064 68.4185L191.176 67.7883L142.561 59.1673L142.449 59.7974Z" fill="#A7B8CE"/>
<path d="M141.886 62.9649L190.502 71.5859L190.614 70.9558L141.998 62.3348L141.886 62.9649Z" fill="#A7B8CE"/>
<path d="M141.328 66.1158L189.943 74.7368L190.055 74.1067L141.44 65.4856L141.328 66.1158Z" fill="#A7B8CE"/>
<path d="M140.766 69.283L189.382 77.9041L189.494 77.2739L140.878 68.6529L140.766 69.283Z" fill="#A7B8CE"/>
<path d="M140.208 72.4339L188.823 81.0549L188.935 80.4248L140.319 71.8037L140.208 72.4339Z" fill="#A7B8CE"/>
<path d="M130.299 92.4844L192.363 108.817L215.325 21.5616L153.261 5.2288L130.299 92.4844Z" fill="#EAF4FA"/>
<path d="M168.022 19.0391L195.735 26.332L195.898 25.7131L168.185 18.4201L168.022 19.0391Z" fill="#A7B8CE"/>
<path d="M162.617 15.9365L201.981 26.2957L202.144 25.6767L162.78 15.3176L162.617 15.9365Z" fill="#A7B8CE"/>
<path d="M156.283 22.9404L204.034 35.5066L204.197 34.8876L156.446 22.3215L156.283 22.9404Z" fill="#A7B8CE"/>
<path d="M155.492 25.9324L203.243 38.4985L203.406 37.8796L155.655 25.3134L155.492 25.9324Z" fill="#A7B8CE"/>
<path d="M153.926 31.9194L201.678 44.4856L201.841 43.8667L154.089 31.3005L153.926 31.9194Z" fill="#A7B8CE"/>
<path d="M153.135 34.9114L200.887 47.4775L201.05 46.8586L153.298 34.2924L153.135 34.9114Z" fill="#A7B8CE"/>
<path d="M152.348 37.8874L200.1 50.4536L200.262 49.8347L152.511 37.2685L152.348 37.8874Z" fill="#A7B8CE"/>
<path d="M148.889 51.0603L196.641 63.6265L196.804 63.0075L149.052 50.4413L148.889 51.0603Z" fill="#A7B8CE"/>
<path d="M148.073 54.1621L195.824 66.7283L195.987 66.1093L148.236 53.5431L148.073 54.1621Z" fill="#A7B8CE"/>
<path d="M147.256 57.2634L195.008 69.8296L195.171 69.2106L147.419 56.6445L147.256 57.2634Z" fill="#A7B8CE"/>
<path d="M146.439 60.3652L194.19 72.9314L194.353 72.3125L146.602 59.7463L146.439 60.3652Z" fill="#A7B8CE"/>
<path d="M145.622 63.467L193.373 76.0332L193.536 75.4143L145.784 62.8481L145.622 63.467Z" fill="#A7B8CE"/>
<path d="M144.803 66.5696L192.555 79.1357L192.718 78.5168L144.966 65.9506L144.803 66.5696Z" fill="#A7B8CE"/>
<path d="M143.989 69.6704L191.74 82.2366L191.903 81.6176L144.152 69.0514L143.989 69.6704Z" fill="#A7B8CE"/>
<path d="M144.816 105.111L211.248 131.799L250 35.3189L194.176 0.886976C191.04 -1.04902 186.912 0.310974 185.536 3.73497L144.816 105.111Z" fill="#FCD8A1"/>
<path d="M224.784 94.983L236.816 91.463C238.928 82.711 240.208 75.239 240.208 75.239C225.68 75.831 214.512 80.263 205.904 86.583L204.128 100.887L200.288 91.287C179.984 110.647 177.616 140.519 177.616 140.519C177.616 140.519 218.464 124.535 226.256 117.943C229.264 115.399 232.032 108.455 234.288 100.871C230.224 98.711 224.784 94.983 224.784 94.983Z" fill="#FDABBD"/>
<path d="M240.208 75.239C240.208 75.239 192.4 112.743 177.616 140.535C177.616 140.535 218.464 124.551 226.256 117.959C229.264 115.415 232.032 108.471 234.288 100.887C230.224 98.695 224.784 94.967 224.784 94.967L236.816 91.447C238.928 82.695 240.208 75.239 240.208 75.239Z" fill="#ED97B2"/>
<path d="M248.417 112.039C239.937 109.591 231.953 109.239 224.593 110.231C223.217 113.383 221.489 117.127 221.489 117.127L219.553 111.127C191.969 117.335 174.385 141.767 174.385 141.767C192.881 147.399 207.105 146.455 217.889 142.567C217.969 140.263 218.017 136.839 218.017 136.839L221.297 141.175C226.353 138.903 230.577 135.975 234.049 132.855C232.321 130.615 230.449 128.023 230.449 128.023L237.233 129.751C245.425 121.047 248.417 112.039 248.417 112.039Z" fill="#FDABBD"/>
<path d="M217.889 142.567C217.969 140.263 218.017 136.839 218.017 136.839L221.297 141.175C226.353 138.903 230.577 135.975 234.049 132.855C232.321 130.615 230.449 128.023 230.449 128.023L237.233 129.751C245.425 121.047 248.417 112.023 248.417 112.023C215.665 117.031 174.385 141.751 174.385 141.751C192.881 147.399 207.105 146.471 217.889 142.567Z" fill="#ED97B2"/>
<path d="M39.6963 38.8548H35.1523C35.8883 38.3428 36.8323 38.0388 37.8403 38.0388H151.664C157.616 38.0388 162.448 42.3108 162.448 47.5908V53.6548C162.448 58.9348 157.616 63.2068 151.664 63.2068L39.1203 63.1748L39.6963 38.8548Z" fill="#ED97B2"/>
<path d="M152.88 53.6709V47.6069C152.88 42.3269 148.048 38.0549 142.096 38.0549H144.544C150.496 38.0549 155.328 42.3269 155.328 47.6069V53.6709C155.328 58.9509 150.496 63.2229 144.544 63.2229H142.128C148.08 63.2229 152.88 58.9509 152.88 53.6709Z" fill="#FCD8A1"/>
<path d="M126.224 53.6709V47.6069C126.224 42.3269 121.392 38.0549 115.44 38.0549H117.888C123.84 38.0549 128.672 42.3269 128.672 47.6069V53.6709C128.672 58.9509 123.84 63.2229 117.888 63.2229H115.472C121.424 63.2229 126.224 58.9509 126.224 53.6709Z" fill="#FCD8A1"/>
<path d="M104.305 38.071C110.001 38.071 114.609 42.167 114.609 47.207V54.071C114.609 59.111 109.985 63.207 104.305 63.207H33.457V61.671H33.745L51.761 60.151L55.409 47.495C55.409 47.495 48.385 40.503 47.921 40.311C47.457 40.135 33.745 39.591 33.745 39.591H33.457V38.071H104.305Z" fill="#FDABBD"/>
<path d="M38.0485 50.5989C38.0485 43.1909 33.7285 39.6069 33.7285 39.6069H102.848C108.08 39.6069 112.32 43.3669 112.32 48.0069V53.2869C112.32 57.9269 108.08 61.6869 102.848 61.6869H33.7285C33.7445 61.6709 38.0485 59.9109 38.0485 50.5989Z" fill="#EAF4FA"/>
<path d="M112.336 48.0068V53.2868C112.336 53.9748 112.24 54.6628 112.064 55.3028C109.728 50.2468 105.264 45.3829 96.7521 43.8149C76.8961 40.1509 33.7441 39.6229 33.7441 39.6229H102.864C108.096 39.6069 112.336 43.3669 112.336 48.0068Z" fill="#EAF4FA"/>
<path d="M41.5676 89.2069H36.4316C37.2796 88.5669 38.3196 88.1829 39.4716 88.1829H168.288C175.024 88.1829 180.496 93.5429 180.496 100.151V107.751C180.496 114.359 175.04 119.719 168.288 119.719L40.9116 119.671L41.5676 89.2069Z" fill="#8181AC"/>
<path d="M114.704 88.2148C121.152 88.2148 126.368 93.3348 126.368 99.6548V108.247C126.368 114.567 121.136 119.687 114.704 119.687H34.5117V117.767H34.8477L55.2317 115.879L59.3597 100.039C59.3597 100.039 51.4077 91.2868 50.8957 91.0628C50.3837 90.8388 34.8637 90.1508 34.8637 90.1508H34.5277V88.2468H114.704V88.2148Z" fill="#A7B8CE"/>
<path d="M39.712 103.895C39.712 94.631 34.832 90.135 34.832 90.135H113.072C118.992 90.135 123.792 94.839 123.792 100.647V107.255C123.792 113.063 118.992 117.767 113.072 117.767H34.832C34.832 117.767 39.712 115.559 39.712 103.895Z" fill="#EAF4FA"/>
<path d="M123.776 100.647V107.255C123.776 108.119 123.664 108.967 123.456 109.783C120.816 103.447 115.76 97.3509 106.128 95.3989C83.6484 90.8229 34.8164 90.1509 34.8164 90.1509H113.056C118.976 90.1349 123.776 94.8389 123.776 100.647Z" fill="#EAF4FA"/>
<path d="M184.736 63.9748H189.888C189.04 63.4628 188 63.1748 186.848 63.1748H57.9678C51.2318 63.1748 45.7598 67.4308 45.7598 72.6628V78.6948C45.7598 83.9428 51.2318 88.1828 57.9678 88.1828L185.392 88.1508L184.736 63.9748Z" fill="#7EE3DE"/>
<path d="M111.569 63.1909C105.121 63.1909 99.8887 67.2549 99.8887 72.2629V79.0789C99.8887 84.0869 105.121 88.1509 111.569 88.1509H191.793V86.6309H191.457L171.057 85.1269L166.929 72.5509C166.929 72.5509 174.881 65.6069 175.409 65.4309C175.921 65.2549 191.457 64.7109 191.457 64.7109H191.793V63.1909H111.569Z" fill="#80DDD5"/>
<path d="M186.592 75.6388C186.592 68.2788 191.472 64.7268 191.472 64.7268H113.216C107.296 64.7268 102.496 68.4548 102.496 73.0628V78.3108C102.496 82.9188 107.296 86.6468 113.216 86.6468H191.472C191.472 86.6468 186.592 84.8868 186.592 75.6388Z" fill="#EAF4FA"/>
<path d="M102.496 73.0628V78.3108C102.496 78.9988 102.608 79.6708 102.816 80.3108C105.456 75.2869 110.512 70.4548 120.144 68.9028C142.624 65.2709 191.488 64.7269 191.488 64.7269H113.216C107.296 64.7109 102.496 68.4549 102.496 73.0628Z" fill="#EAF4FA"/>
<path opacity="0.5" d="M69.3601 78.6948V72.6628C69.3601 67.4148 74.8321 63.1748 81.5681 63.1748H69.3281C62.5921 63.1748 57.1201 67.4308 57.1201 72.6628V78.6948C57.1201 83.9428 62.5921 88.1828 69.3281 88.1828H81.4081C74.7521 88.1188 69.3601 83.8948 69.3601 78.6948Z" fill="#A7B8CE"/>
<path d="M193.216 120.679H199.664C198.608 120.119 197.296 119.783 195.856 119.783H34.3042C25.8562 119.783 18.9922 124.535 18.9922 130.391V137.127C18.9922 142.983 25.8402 147.735 34.3042 147.735L194.048 147.703L193.216 120.679Z" fill="#FCD8A1"/>
<path d="M101.504 119.799C93.4243 119.799 86.8643 124.343 86.8643 129.943V137.559C86.8643 143.159 93.4243 147.703 101.504 147.703H202.08V146.007H201.664L176.096 144.327L170.928 130.279C170.928 130.279 180.896 122.519 181.552 122.311C182.208 122.103 201.664 121.511 201.664 121.511H202.08V119.815H101.504V119.799Z" fill="#F7D09E"/>
<path d="M195.552 133.703C195.552 125.495 201.68 121.511 201.68 121.511H103.552C96.1283 121.511 90.1123 125.687 90.1123 130.823V136.679C90.1123 141.831 96.1283 145.991 103.552 145.991H201.664C201.68 145.991 195.552 144.039 195.552 133.703Z" fill="#EAF4FA"/>
<path d="M90.1123 130.823V136.679C90.1123 137.447 90.2563 138.199 90.5123 138.919C93.8243 133.303 100.16 127.911 112.24 126.167C140.432 122.103 201.68 121.511 201.68 121.511H103.552C96.1283 121.511 90.1123 125.671 90.1123 130.823Z" fill="#EAF4FA"/>
<path d="M1.24833 150.615H235.552C236.24 150.615 236.8 150.055 236.8 149.367V148.791C236.8 148.103 236.24 147.543 235.552 147.543H1.24833C0.560334 147.543 0.000334499 148.103 0.000334499 148.791V149.367C-0.0156655 150.055 0.544334 150.615 1.24833 150.615Z" fill="#C4DFE8"/>
<path d="M238.224 45.9589L192.992 20.0869L186.88 32.1989L233.168 56.6789L238.224 45.9589Z" fill="#F7D09E"/>
<g filter="url(#filter0_d_559_22244)">
<path fill-rule="evenodd" clip-rule="evenodd" d="M167.308 71.696C167.691 72.0888 167.686 72.7169 167.297 73.1036L115.764 124.3C115.374 124.687 114.745 124.687 114.355 124.3L82.7029 92.8546C82.3137 92.4679 82.3087 91.8398 82.6918 91.447L94.3704 79.4734C94.7585 79.0755 95.3967 79.0705 95.791 79.4623L114.355 97.9048C114.745 98.2923 115.374 98.2923 115.764 97.9048L154.209 59.7113C154.603 59.3195 155.242 59.3245 155.63 59.7225L167.308 71.696Z" fill="#17D887"/>
</g>
<defs>
<filter id="filter0_d_559_22244" x="82.4072" y="59.4207" width="88.1855" height="71.1697" filterUnits="userSpaceOnUse" color-interpolation-filters="sRGB">
<feFlood flood-opacity="0" result="BackgroundImageFix"/>
<feColorMatrix in="SourceAlpha" type="matrix" values="0 0 0 0 0 0 0 0 0 0 0 0 0 0 0 0 0 0 127 0" result="hardAlpha"/>
<feOffset dx="3" dy="6"/>
<feComposite in2="hardAlpha" operator="out"/>
<feColorMatrix type="matrix" values="0 0 0 0 0.0966667 0 0 0 0 0.1938 0 0 0 0 0.2 0 0 0 0.45 0"/>
<feBlend mode="normal" in2="BackgroundImageFix" result="effect1_dropShadow_559_22244"/>
<feBlend mode="normal" in="SourceGraphic" in2="effect1_dropShadow_559_22244" result="shape"/>
</filter>
</defs>
</svg>
