<svg width="463" height="244" viewBox="0 0 463 244" fill="none" xmlns="http://www.w3.org/2000/svg">
<circle cx="389.347" cy="53" r="50" fill="#35A5D4" fill-opacity="0.1"/>
<circle cx="389.347" cy="53" r="49.5" stroke="white" stroke-opacity="0.5"/>
<path d="M227.853 28.4088C231.41 25.7921 236.263 25.819 239.792 28.475L438.448 178.011C446.119 183.785 442.035 196 432.434 196H30.4731C20.8156 196 16.7683 183.667 24.548 177.944L227.853 28.4088Z" fill="#35A5D4" fill-opacity="0.2"/>
<path d="M228.149 28.8116C231.529 26.3257 236.139 26.3512 239.491 28.8744L438.147 178.41C445.435 183.895 441.555 195.5 432.434 195.5H30.4731C21.2985 195.5 17.4535 183.783 24.8442 178.347L228.149 28.8116Z" stroke="white" stroke-opacity="0.3"/>
<g filter="url(#filter0_b_501_9944)">
<path d="M119.62 9.52824C122.719 4.64263 129.305 3.39813 133.973 6.81604L367.67 177.932C375.471 183.643 371.431 196 361.762 196H19.5312C11.647 196 6.86375 187.302 11.0867 180.644L119.62 9.52824Z" fill="#35A5D4" fill-opacity="0.03"/>
<path d="M120.043 9.79605C122.986 5.15472 129.243 3.97244 133.677 7.21946L367.375 178.335C374.786 183.761 370.947 195.5 361.762 195.5H19.5312C12.0413 195.5 7.49712 187.237 11.5089 180.912L120.043 9.79605Z" stroke="white" stroke-opacity="0.4"/>
</g>
<path d="M137.268 232.608C137.62 232.608 137.913 232.496 138.148 232.272C138.393 232.048 138.516 231.765 138.516 231.424C138.516 231.328 138.484 231.173 138.42 230.96L137.012 227.088L138.26 226.64L140.084 231.664C140.18 231.941 140.351 232.171 140.596 232.352C140.841 232.523 141.113 232.608 141.412 232.608H141.636C141.743 232.608 141.796 232.661 141.796 232.768V233.84C141.796 233.947 141.743 234 141.636 234H141.364C140.905 234 140.495 233.893 140.132 233.68C139.769 233.456 139.503 233.173 139.332 232.832C138.873 233.611 138.185 234 137.268 234H133.652V232.608H137.268ZM141.484 232.768C141.484 232.661 141.537 232.608 141.644 232.608H142.572C142.934 232.608 143.249 232.48 143.516 232.224C143.782 231.957 143.916 231.643 143.916 231.28V228.816H145.228V231.28C145.228 231.653 145.356 231.968 145.612 232.224C145.878 232.48 146.198 232.608 146.572 232.608H147.484C147.59 232.608 147.644 232.661 147.644 232.768V233.84C147.644 233.947 147.59 234 147.484 234H146.572C146.134 234 145.74 233.899 145.388 233.696C145.036 233.493 144.758 233.216 144.556 232.864C144.364 233.216 144.092 233.493 143.74 233.696C143.398 233.899 143.009 234 142.572 234H141.644C141.537 234 141.484 233.947 141.484 233.84V232.768ZM142.716 235.52H144.124V236.928H142.716V235.52ZM144.956 235.52H146.364V236.928H144.956V235.52ZM149.567 225.888H150.991V227.296H149.567V225.888ZM147.327 232.768C147.327 232.661 147.381 232.608 147.487 232.608H148.287C148.661 232.608 148.975 232.48 149.231 232.224C149.498 231.957 149.631 231.643 149.631 231.28V228.816H150.943V231.28C150.943 231.643 151.071 231.957 151.327 232.224C151.594 232.48 151.914 232.608 152.287 232.608H153.087C153.194 232.608 153.247 232.661 153.247 232.768V233.84C153.247 233.947 153.194 234 153.087 234H152.287C151.85 234 151.455 233.899 151.103 233.696C150.762 233.493 150.49 233.216 150.287 232.864C150.095 233.216 149.823 233.493 149.471 233.696C149.119 233.899 148.725 234 148.287 234H147.487C147.381 234 147.327 233.947 147.327 233.84V232.768ZM152.921 232.768C152.921 232.661 152.974 232.608 153.081 232.608H156.569C157.006 232.608 157.38 232.459 157.689 232.16C157.998 231.851 158.153 231.472 158.153 231.024C158.153 230.437 157.87 229.973 157.305 229.632L153.497 227.12V226.032L156.569 222.784L157.465 223.632L154.809 226.416L158.169 228.624C158.574 228.891 158.894 229.237 159.129 229.664C159.364 230.08 159.481 230.544 159.481 231.056C159.481 231.589 159.348 232.08 159.081 232.528C158.825 232.976 158.473 233.333 158.025 233.6C157.577 233.867 157.092 234 156.569 234H153.081C152.974 234 152.921 233.947 152.921 233.84V232.768ZM168.238 232.608C168.611 232.608 168.92 232.48 169.166 232.224C169.422 231.968 169.55 231.659 169.55 231.296C169.55 230.816 169.304 230.421 168.814 230.112L165.822 228.048L166.558 226.96L169.758 229.168C170.504 229.701 170.878 230.4 170.878 231.264C170.878 231.776 170.75 232.24 170.494 232.656C170.248 233.072 169.912 233.403 169.486 233.648C169.07 233.883 168.616 234 168.126 234H164.574V232.608H168.238ZM179.724 232.608C179.83 232.608 179.884 232.661 179.884 232.768V233.84C179.884 233.947 179.83 234 179.724 234H178.812C178.748 234.704 178.545 235.291 178.204 235.76C177.862 236.229 177.404 236.629 176.828 236.96C176.252 237.301 175.409 237.712 174.3 238.192L173.9 237.024C174.924 236.587 175.67 236.235 176.14 235.968C176.62 235.701 176.966 235.419 177.18 235.12C177.393 234.832 177.5 234.459 177.5 234H175.788C175.222 234 174.7 233.867 174.22 233.6C173.75 233.333 173.372 232.971 173.084 232.512C172.806 232.053 172.668 231.541 172.668 230.976C172.668 230.411 172.806 229.893 173.084 229.424C173.372 228.944 173.75 228.565 174.22 228.288C174.7 228 175.222 227.856 175.788 227.856C176.342 227.856 176.854 228 177.324 228.288C177.793 228.565 178.161 228.944 178.428 229.424C178.694 229.893 178.828 230.411 178.828 230.976V232.608H179.724ZM177.5 230.96C177.5 230.48 177.334 230.075 177.004 229.744C176.673 229.403 176.268 229.232 175.788 229.232C175.308 229.232 174.902 229.403 174.572 229.744C174.241 230.075 174.076 230.48 174.076 230.96C174.076 231.44 174.241 231.845 174.572 232.176C174.902 232.507 175.308 232.672 175.788 232.672H177.5V230.96ZM179.722 234C179.615 234 179.562 233.947 179.562 233.84V232.768C179.562 232.661 179.615 232.608 179.722 232.608H180.458C180.831 232.608 181.146 232.48 181.402 232.224C181.668 231.957 181.802 231.643 181.802 231.28V223.456H183.13V231.28C183.13 231.653 183.258 231.968 183.514 232.224C183.78 232.48 184.1 232.608 184.474 232.608H185.21C185.316 232.608 185.37 232.661 185.37 232.768V233.84C185.37 233.947 185.316 234 185.21 234H184.474C184.026 234 183.626 233.893 183.274 233.68C182.922 233.456 182.65 233.163 182.458 232.8C182.266 233.173 181.994 233.467 181.642 233.68C181.3 233.893 180.906 234 180.458 234H179.722ZM185.206 234C185.099 234 185.046 233.947 185.046 233.84V232.768C185.046 232.661 185.099 232.608 185.206 232.608H186.39C186.763 232.608 187.078 232.475 187.334 232.208C187.601 231.941 187.734 231.616 187.734 231.232V228.32H189.046V231.312C189.046 231.803 188.923 232.256 188.678 232.672C188.443 233.077 188.123 233.403 187.718 233.648C187.313 233.883 186.865 234 186.374 234H185.206ZM185.206 235.472H186.614V236.896H185.206V235.472ZM187.462 235.472H188.87V236.896H187.462V235.472ZM186.342 237.728H187.75V239.152H186.342V237.728ZM188.909 223.424C188.909 223.051 189.026 222.747 189.261 222.512C189.496 222.267 189.8 222.144 190.173 222.144H193.309V223.2H190.285C190.157 223.2 190.045 223.248 189.949 223.344C189.853 223.429 189.805 223.541 189.805 223.68V224.336H188.909V223.424ZM190.669 224.48H191.981V234H190.669V224.48ZM197.217 223.456H198.529V234H197.217V223.456ZM198.101 237.088C198.89 236.651 199.455 236.309 199.797 236.064C200.138 235.819 200.394 235.515 200.565 235.152C200.746 234.8 200.837 234.315 200.837 233.696V228.816H202.149V233.696C202.149 234.485 202.031 235.136 201.797 235.648C201.562 236.16 201.199 236.597 200.709 236.96C200.218 237.333 199.514 237.744 198.597 238.192L198.101 237.088ZM210.941 232.608C211.314 232.608 211.624 232.48 211.869 232.224C212.125 231.968 212.253 231.659 212.253 231.296C212.253 230.816 212.008 230.421 211.517 230.112L208.525 228.048L209.261 226.96L212.461 229.168C213.208 229.701 213.581 230.4 213.581 231.264C213.581 231.776 213.453 232.24 213.197 232.656C212.952 233.072 212.616 233.403 212.189 233.648C211.773 233.883 211.32 234 210.829 234H207.277V232.608H210.941ZM222.427 232.608C222.533 232.608 222.587 232.661 222.587 232.768V233.84C222.587 233.947 222.533 234 222.427 234H221.515C221.451 234.704 221.248 235.291 220.907 235.76C220.565 236.229 220.107 236.629 219.531 236.96C218.955 237.301 218.112 237.712 217.003 238.192L216.603 237.024C217.627 236.587 218.373 236.235 218.843 235.968C219.323 235.701 219.669 235.419 219.883 235.12C220.096 234.832 220.203 234.459 220.203 234H218.491C217.925 234 217.403 233.867 216.923 233.6C216.453 233.333 216.075 232.971 215.787 232.512C215.509 232.053 215.371 231.541 215.371 230.976C215.371 230.411 215.509 229.893 215.787 229.424C216.075 228.944 216.453 228.565 216.923 228.288C217.403 228 217.925 227.856 218.491 227.856C219.045 227.856 219.557 228 220.027 228.288C220.496 228.565 220.864 228.944 221.131 229.424C221.397 229.893 221.531 230.411 221.531 230.976V232.608H222.427ZM220.203 230.96C220.203 230.48 220.037 230.075 219.707 229.744C219.376 229.403 218.971 229.232 218.491 229.232C218.011 229.232 217.605 229.403 217.275 229.744C216.944 230.075 216.779 230.48 216.779 230.96C216.779 231.44 216.944 231.845 217.275 232.176C217.605 232.507 218.011 232.672 218.491 232.672H220.203V230.96ZM225.609 224.192H227.017V225.616H225.609V224.192ZM222.425 234C222.318 234 222.265 233.947 222.265 233.84V232.768C222.265 232.661 222.318 232.608 222.425 232.608H225.353C225.822 232.608 226.265 232.533 226.681 232.384C227.097 232.224 227.459 232.005 227.769 231.728L229.785 229.888L226.969 228.544C226.713 228.427 226.489 228.368 226.297 228.368C226.115 228.368 225.929 228.411 225.737 228.496C225.555 228.581 225.395 228.693 225.257 228.832L224.105 230.144L223.193 229.36L224.345 227.952C224.579 227.675 224.867 227.456 225.209 227.296C225.55 227.136 225.918 227.056 226.313 227.056C226.558 227.056 226.761 227.083 226.921 227.136C227.081 227.189 227.267 227.269 227.481 227.376L230.969 229.008C231.033 229.04 231.129 229.056 231.257 229.056H232.585V230.352H231.097L228.505 232.752C228.067 233.157 227.555 233.467 226.969 233.68C226.393 233.893 225.785 234 225.145 234H222.425ZM242.276 232.608C242.382 232.608 242.436 232.661 242.436 232.768V233.84C242.436 233.947 242.382 234 242.276 234H241.54C241.017 234 240.569 233.856 240.196 233.568V233.696C240.196 234.485 240.078 235.136 239.844 235.648C239.609 236.16 239.246 236.597 238.756 236.96C238.265 237.333 237.561 237.744 236.644 238.192L236.148 237.088C236.937 236.651 237.502 236.309 237.844 236.064C238.185 235.819 238.441 235.515 238.612 235.152C238.793 234.8 238.884 234.315 238.884 233.696V228.816H240.196V231.28C240.196 231.643 240.324 231.957 240.58 232.224C240.846 232.48 241.166 232.608 241.54 232.608H242.276ZM254.381 232.608C254.487 232.608 254.541 232.661 254.541 232.768V233.84C254.541 233.947 254.487 234 254.381 234H253.629C253.181 234 252.781 233.899 252.429 233.696C252.087 233.483 251.815 233.189 251.613 232.816C251.314 233.179 250.951 233.467 250.525 233.68C250.098 233.893 249.645 234 249.165 234H242.269C242.162 234 242.109 233.947 242.109 233.84V232.768C242.109 232.661 242.162 232.608 242.269 232.608H249.181C249.671 232.608 250.087 232.437 250.429 232.096C250.77 231.744 250.941 231.317 250.941 230.816C250.941 230.325 250.765 229.909 250.413 229.568C250.071 229.216 249.655 229.04 249.165 229.04C248.973 229.04 248.775 229.072 248.573 229.136C248.381 229.2 248.151 229.312 247.885 229.472L243.773 231.92L243.293 230.736L244.781 229.856L244.685 229.904C244.898 229.787 245.037 229.611 245.101 229.376C245.165 229.141 245.197 228.859 245.197 228.528V223.44H246.525V227.536C246.525 228.176 246.434 228.656 246.253 228.976L247.277 228.368C247.661 228.144 247.986 227.984 248.253 227.888C248.519 227.781 248.829 227.728 249.181 227.728C249.746 227.728 250.269 227.872 250.749 228.16C251.229 228.437 251.607 228.816 251.885 229.296C252.162 229.765 252.301 230.283 252.301 230.848V231.28C252.301 231.643 252.429 231.957 252.685 232.224C252.951 232.48 253.266 232.608 253.629 232.608H254.381ZM249.981 224.864V226.272H248.573V224.864H249.981ZM256.282 225.392H257.706V226.8H256.282V225.392ZM254.378 234C254.271 234 254.218 233.947 254.218 233.84V232.768C254.218 232.661 254.271 232.608 254.378 232.608H255.13C255.503 232.608 255.818 232.475 256.074 232.208C256.341 231.941 256.474 231.616 256.474 231.232V228.32H257.786V231.312C257.786 231.803 257.663 232.256 257.418 232.672C257.183 233.077 256.863 233.403 256.458 233.648C256.053 233.883 255.605 234 255.114 234H254.378ZM266.55 232.608C266.924 232.608 267.233 232.48 267.478 232.224C267.734 231.968 267.862 231.659 267.862 231.296C267.862 230.816 267.617 230.421 267.126 230.112L264.134 228.048L264.87 226.96L268.07 229.168C268.817 229.701 269.19 230.4 269.19 231.264C269.19 231.776 269.062 232.24 268.806 232.656C268.561 233.072 268.225 233.403 267.798 233.648C267.382 233.883 266.929 234 266.438 234H262.886V232.608H266.55ZM268.304 237.088C269.093 236.651 269.658 236.309 270 236.064C270.341 235.819 270.597 235.515 270.768 235.152C270.949 234.8 271.04 234.315 271.04 233.696V228.816H272.352V233.696C272.352 234.485 272.234 235.136 272 235.648C271.765 236.16 271.402 236.597 270.912 236.96C270.421 237.333 269.717 237.744 268.8 238.192L268.304 237.088ZM281.239 232.608C281.346 232.608 281.399 232.661 281.399 232.768V233.84C281.399 233.947 281.346 234 281.239 234H280.327C280.263 234.704 280.061 235.291 279.719 235.76C279.378 236.229 278.919 236.629 278.343 236.96C277.767 237.301 276.925 237.712 275.815 238.192L275.415 237.024C276.439 236.587 277.186 236.235 277.655 235.968C278.135 235.701 278.482 235.419 278.695 235.12C278.909 234.832 279.015 234.459 279.015 234H277.303C276.738 234 276.215 233.867 275.735 233.6C275.266 233.333 274.887 232.971 274.599 232.512C274.322 232.053 274.183 231.541 274.183 230.976C274.183 230.411 274.322 229.893 274.599 229.424C274.887 228.944 275.266 228.565 275.735 228.288C276.215 228 276.738 227.856 277.303 227.856C277.858 227.856 278.37 228 278.839 228.288C279.309 228.565 279.677 228.944 279.943 229.424C280.21 229.893 280.343 230.411 280.343 230.976V232.608H281.239ZM279.015 230.96C279.015 230.48 278.85 230.075 278.519 229.744C278.189 229.403 277.783 229.232 277.303 229.232C276.823 229.232 276.418 229.403 276.087 229.744C275.757 230.075 275.591 230.48 275.591 230.96C275.591 231.44 275.757 231.845 276.087 232.176C276.418 232.507 276.823 232.672 277.303 232.672H279.015V230.96ZM286.485 227.888C287.051 227.888 287.573 228.021 288.053 228.288C288.533 228.555 288.912 228.917 289.189 229.376C289.467 229.835 289.605 230.347 289.605 230.912C289.605 231.477 289.467 232 289.189 232.48C288.912 232.96 288.533 233.339 288.053 233.616C287.573 233.893 287.051 234.032 286.485 234.032C286.005 234.032 285.563 233.931 285.157 233.728C284.752 233.525 284.411 233.243 284.133 232.88C283.92 233.221 283.637 233.493 283.285 233.696C282.944 233.899 282.56 234 282.133 234H281.237C281.131 234 281.077 233.947 281.077 233.84V232.768C281.077 232.661 281.131 232.608 281.237 232.608H282.133C282.507 232.608 282.821 232.48 283.077 232.224C283.344 231.957 283.477 231.643 283.477 231.28V229.216H282.533V227.888H286.485ZM286.485 232.64C286.965 232.64 287.371 232.475 287.701 232.144C288.043 231.803 288.213 231.392 288.213 230.912C288.213 230.443 288.043 230.043 287.701 229.712C287.371 229.381 286.965 229.216 286.485 229.216H284.773V230.912C284.773 231.392 284.939 231.803 285.269 232.144C285.6 232.475 286.005 232.64 286.485 232.64ZM314.155 232.608C314.261 232.608 314.315 232.661 314.315 232.768V233.84C314.315 233.947 314.261 234 314.155 234H313.419C312.992 234 312.603 233.904 312.251 233.712C311.909 233.509 311.637 233.237 311.435 232.896C311.221 233.248 310.939 233.525 310.587 233.728C310.245 233.931 309.856 234.032 309.419 234.032C308.981 234.032 308.587 233.931 308.235 233.728C307.893 233.525 307.621 233.253 307.419 232.912C307.205 233.264 306.928 233.541 306.587 233.744C306.245 233.936 305.856 234.032 305.419 234.032C304.789 234.032 304.288 233.829 303.915 233.424C303.765 234.117 303.472 234.741 303.035 235.296C302.608 235.851 302.08 236.283 301.451 236.592C300.821 236.912 300.144 237.072 299.419 237.072C298.587 237.072 297.819 236.864 297.115 236.448C296.411 236.032 295.851 235.467 295.435 234.752C295.019 234.048 294.811 233.28 294.811 232.448V229.456H296.123V232.368C296.123 232.965 296.272 233.515 296.571 234.016C296.869 234.528 297.269 234.933 297.771 235.232C298.272 235.531 298.821 235.68 299.419 235.68C300.016 235.68 300.571 235.531 301.083 235.232C301.595 234.933 302 234.528 302.299 234.016C302.597 233.515 302.747 232.965 302.747 232.368V228.816H304.075V231.312C304.075 231.675 304.203 231.989 304.459 232.256C304.725 232.512 305.045 232.64 305.419 232.64C305.781 232.64 306.096 232.512 306.363 232.256C306.629 231.989 306.763 231.675 306.763 231.312V228.816H308.075V231.312C308.075 231.675 308.203 231.989 308.459 232.256C308.725 232.512 309.045 232.64 309.419 232.64C309.792 232.64 310.107 232.512 310.363 232.256C310.619 231.989 310.747 231.675 310.747 231.312V228.32H312.075V231.28C312.075 231.643 312.203 231.957 312.459 232.224C312.725 232.48 313.045 232.608 313.419 232.608H314.155ZM322.639 232.608C322.746 232.608 322.799 232.661 322.799 232.768V233.84C322.799 233.947 322.746 234 322.639 234H321.903C321.466 234 321.077 233.904 320.735 233.712C320.394 233.509 320.117 233.237 319.903 232.896C319.637 233.237 319.306 233.509 318.911 233.712C318.517 233.904 318.095 234 317.647 234H314.159C314.053 234 313.999 233.947 313.999 233.84V232.768C313.999 232.661 314.053 232.608 314.159 232.608H317.647C318.085 232.608 318.458 232.459 318.767 232.16C319.077 231.851 319.231 231.472 319.231 231.024C319.231 230.437 318.949 229.973 318.383 229.632L314.575 227.12V226.032L317.647 222.784L318.543 223.632L315.887 226.416L319.247 228.624C319.663 228.891 319.983 229.232 320.207 229.648C320.442 230.064 320.559 230.528 320.559 231.04V231.28C320.559 231.643 320.687 231.957 320.943 232.224C321.21 232.48 321.53 232.608 321.903 232.608H322.639ZM329.572 232.608V234H322.644C322.537 234 322.484 233.947 322.484 233.84V232.768C322.484 232.661 322.537 232.608 322.644 232.608H324.452C323.982 232.075 323.748 231.44 323.748 230.704C323.748 230.107 323.892 229.563 324.18 229.072C324.478 228.571 324.884 228.181 325.396 227.904C325.908 227.616 326.468 227.472 327.076 227.472H328.836V228.768H327.076C326.532 228.768 326.073 228.955 325.7 229.328C325.326 229.691 325.14 230.144 325.14 230.688C325.14 231.232 325.321 231.691 325.684 232.064C326.057 232.427 326.521 232.608 327.076 232.608H329.572Z" fill="#8593A6"/>
<defs>
<filter id="filter0_b_501_9944" x="-40.4849" y="-45.1168" width="462.267" height="291.117" filterUnits="userSpaceOnUse" color-interpolation-filters="sRGB">
<feFlood flood-opacity="0" result="BackgroundImageFix"/>
<feGaussianBlur in="BackgroundImage" stdDeviation="25"/>
<feComposite in2="SourceAlpha" operator="in" result="effect1_backgroundBlur_501_9944"/>
<feBlend mode="normal" in="SourceGraphic" in2="effect1_backgroundBlur_501_9944" result="shape"/>
</filter>
</defs>
</svg>
